<svg width="540" height="212" viewBox="0 0 540 212" fill="none" xmlns="http://www.w3.org/2000/svg">
<rect width="540" height="212" fill="#F13C6E"/>
<path d="M345.849 129.984C338.53 129.984 332.837 135.675 332.837 142.992C332.837 150.309 338.53 156 345.849 156C353.168 156 358.861 150.309 358.861 142.992C358.861 135.675 353.168 129.984 345.849 129.984ZM423.107 56H416.601V71.8536H440.999L423.107 56ZM306.813 145.431H323.078C323.078 145.431 323.891 121.041 347.475 121.041C364.96 121.041 367.806 145.431 367.806 145.431H408.469V56H306L306.813 145.431ZM460.516 129.984C453.197 129.984 447.504 135.675 447.504 142.992C447.504 150.309 453.197 156 460.516 156C467.836 156 473.528 150.309 473.528 142.992C473.528 135.675 467.429 129.984 460.516 129.984ZM445.065 76.3252H416.601V145.431H440.999C440.999 145.431 437.746 125.106 461.33 125.106C479.221 125.106 478.814 145.431 478.814 145.431H493.859L494.673 114.943L445.065 76.3252ZM440.999 129.171H424.734V121.041H440.999V129.171ZM439.372 114.537L423.107 104.78V82.0162H439.372L481.661 114.537H439.372Z" fill="white" fill-opacity="0.4"/>
<rect x="41" y="143" width="168" height="33" rx="16.5" fill="#F13C6E" stroke="white" stroke-width="2"/>
<path d="M99.4609 161.484C99.4609 161.252 99.4245 161.047 99.3516 160.869C99.2832 160.687 99.1602 160.523 98.9824 160.377C98.8092 160.231 98.5677 160.092 98.2578 159.96C97.9525 159.828 97.5651 159.693 97.0957 159.557C96.6035 159.411 96.1592 159.249 95.7627 159.071C95.3662 158.889 95.0267 158.682 94.7441 158.449C94.4616 158.217 94.2451 157.95 94.0947 157.649C93.9443 157.349 93.8691 157.005 93.8691 156.617C93.8691 156.23 93.9489 155.872 94.1084 155.544C94.2679 155.216 94.4958 154.931 94.792 154.689C95.0928 154.443 95.4505 154.252 95.8652 154.115C96.2799 153.979 96.7425 153.91 97.2529 153.91C98.0003 153.91 98.6338 154.054 99.1533 154.341C99.6774 154.623 100.076 154.995 100.35 155.455C100.623 155.911 100.76 156.398 100.76 156.918H99.4473C99.4473 156.544 99.3675 156.214 99.208 155.927C99.0485 155.635 98.807 155.407 98.4834 155.243C98.1598 155.075 97.7497 154.99 97.2529 154.99C96.7835 154.99 96.3962 155.061 96.0908 155.202C95.7855 155.343 95.5576 155.535 95.4072 155.776C95.2614 156.018 95.1885 156.294 95.1885 156.604C95.1885 156.813 95.2318 157.005 95.3184 157.178C95.4095 157.346 95.5485 157.504 95.7354 157.649C95.9268 157.795 96.1683 157.93 96.46 158.053C96.7562 158.176 97.1094 158.294 97.5195 158.408C98.0846 158.568 98.5723 158.745 98.9824 158.941C99.3926 159.137 99.7298 159.358 99.9941 159.604C100.263 159.846 100.461 160.122 100.589 160.432C100.721 160.737 100.787 161.083 100.787 161.471C100.787 161.876 100.705 162.243 100.541 162.571C100.377 162.899 100.142 163.18 99.8369 163.412C99.5316 163.645 99.1647 163.825 98.7363 163.952C98.3125 164.075 97.8385 164.137 97.3145 164.137C96.8542 164.137 96.4007 164.073 95.9541 163.945C95.512 163.818 95.1087 163.626 94.7441 163.371C94.3841 163.116 94.0947 162.801 93.876 162.428C93.6618 162.049 93.5547 161.612 93.5547 161.115H94.8672C94.8672 161.457 94.9333 161.751 95.0654 161.997C95.1976 162.239 95.3776 162.439 95.6055 162.599C95.8379 162.758 96.0999 162.877 96.3916 162.954C96.6878 163.027 96.9954 163.063 97.3145 163.063C97.7747 163.063 98.1644 163 98.4834 162.872C98.8024 162.744 99.0439 162.562 99.208 162.325C99.3766 162.088 99.4609 161.808 99.4609 161.484ZM105.374 156.604V157.574H101.375V156.604H105.374ZM102.729 154.806H103.993V162.168C103.993 162.419 104.032 162.608 104.109 162.735C104.187 162.863 104.287 162.947 104.41 162.988C104.533 163.029 104.665 163.05 104.807 163.05C104.911 163.05 105.021 163.041 105.135 163.022C105.253 163 105.342 162.981 105.401 162.968L105.408 164C105.308 164.032 105.176 164.062 105.012 164.089C104.852 164.121 104.659 164.137 104.431 164.137C104.121 164.137 103.836 164.075 103.576 163.952C103.316 163.829 103.109 163.624 102.954 163.337C102.804 163.045 102.729 162.653 102.729 162.161V154.806ZM106.386 160.384V160.227C106.386 159.693 106.463 159.199 106.618 158.743C106.773 158.283 106.996 157.884 107.288 157.547C107.58 157.205 107.933 156.941 108.348 156.754C108.762 156.562 109.227 156.467 109.742 156.467C110.262 156.467 110.729 156.562 111.144 156.754C111.563 156.941 111.918 157.205 112.21 157.547C112.506 157.884 112.732 158.283 112.887 158.743C113.042 159.199 113.119 159.693 113.119 160.227V160.384C113.119 160.917 113.042 161.411 112.887 161.867C112.732 162.323 112.506 162.722 112.21 163.063C111.918 163.401 111.565 163.665 111.15 163.856C110.74 164.043 110.275 164.137 109.756 164.137C109.236 164.137 108.769 164.043 108.354 163.856C107.94 163.665 107.584 163.401 107.288 163.063C106.996 162.722 106.773 162.323 106.618 161.867C106.463 161.411 106.386 160.917 106.386 160.384ZM107.65 160.227V160.384C107.65 160.753 107.694 161.102 107.78 161.43C107.867 161.753 107.997 162.04 108.17 162.291C108.348 162.542 108.569 162.74 108.833 162.886C109.097 163.027 109.405 163.098 109.756 163.098C110.102 163.098 110.405 163.027 110.665 162.886C110.929 162.74 111.148 162.542 111.321 162.291C111.494 162.04 111.624 161.753 111.711 161.43C111.802 161.102 111.848 160.753 111.848 160.384V160.227C111.848 159.862 111.802 159.518 111.711 159.194C111.624 158.866 111.492 158.577 111.314 158.326C111.141 158.071 110.923 157.87 110.658 157.725C110.398 157.579 110.093 157.506 109.742 157.506C109.396 157.506 109.09 157.579 108.826 157.725C108.566 157.87 108.348 158.071 108.17 158.326C107.997 158.577 107.867 158.866 107.78 159.194C107.694 159.518 107.65 159.862 107.65 160.227ZM115.97 157.766V164H114.705V156.604H115.936L115.97 157.766ZM118.28 156.562L118.273 157.738C118.169 157.715 118.068 157.702 117.973 157.697C117.882 157.688 117.777 157.684 117.658 157.684C117.367 157.684 117.109 157.729 116.886 157.82C116.662 157.911 116.473 158.039 116.318 158.203C116.163 158.367 116.04 158.563 115.949 158.791C115.863 159.014 115.806 159.26 115.778 159.529L115.423 159.734C115.423 159.288 115.466 158.868 115.553 158.477C115.644 158.085 115.783 157.738 115.97 157.438C116.157 157.132 116.394 156.895 116.681 156.727C116.972 156.553 117.319 156.467 117.72 156.467C117.811 156.467 117.916 156.478 118.034 156.501C118.153 156.519 118.235 156.54 118.28 156.562ZM122.382 164.137C121.867 164.137 121.4 164.05 120.98 163.877C120.566 163.699 120.208 163.451 119.907 163.132C119.611 162.813 119.383 162.435 119.224 161.997C119.064 161.56 118.984 161.081 118.984 160.562V160.274C118.984 159.673 119.073 159.137 119.251 158.668C119.429 158.194 119.67 157.793 119.976 157.465C120.281 157.137 120.627 156.888 121.015 156.72C121.402 156.551 121.803 156.467 122.218 156.467C122.746 156.467 123.202 156.558 123.585 156.74C123.972 156.923 124.289 157.178 124.535 157.506C124.781 157.829 124.964 158.212 125.082 158.654C125.201 159.092 125.26 159.57 125.26 160.09V160.657H119.736V159.625H123.995V159.529C123.977 159.201 123.909 158.882 123.79 158.572C123.676 158.262 123.494 158.007 123.243 157.807C122.993 157.606 122.651 157.506 122.218 157.506C121.931 157.506 121.666 157.567 121.425 157.69C121.183 157.809 120.976 157.987 120.803 158.224C120.63 158.461 120.495 158.75 120.399 159.092C120.304 159.434 120.256 159.828 120.256 160.274V160.562C120.256 160.912 120.304 161.243 120.399 161.553C120.5 161.858 120.643 162.127 120.83 162.359C121.021 162.592 121.252 162.774 121.521 162.906C121.794 163.038 122.104 163.104 122.45 163.104C122.897 163.104 123.275 163.013 123.585 162.831C123.895 162.649 124.166 162.405 124.398 162.1L125.164 162.708C125.005 162.95 124.802 163.18 124.556 163.398C124.31 163.617 124.007 163.795 123.646 163.932C123.291 164.068 122.869 164.137 122.382 164.137ZM131.467 158.073V164H130.195V156.604H131.398L131.467 158.073ZM131.207 160.021L130.619 160.001C130.624 159.495 130.69 159.028 130.817 158.6C130.945 158.167 131.134 157.791 131.385 157.472C131.635 157.153 131.948 156.907 132.321 156.733C132.695 156.556 133.128 156.467 133.62 156.467C133.966 156.467 134.285 156.517 134.577 156.617C134.869 156.713 135.122 156.866 135.336 157.075C135.55 157.285 135.716 157.554 135.835 157.882C135.953 158.21 136.013 158.606 136.013 159.071V164H134.748V159.133C134.748 158.745 134.682 158.436 134.55 158.203C134.422 157.971 134.24 157.802 134.003 157.697C133.766 157.588 133.488 157.533 133.169 157.533C132.795 157.533 132.483 157.599 132.232 157.731C131.982 157.864 131.781 158.046 131.631 158.278C131.48 158.511 131.371 158.777 131.303 159.078C131.239 159.374 131.207 159.689 131.207 160.021ZM135.999 159.324L135.151 159.584C135.156 159.178 135.222 158.789 135.35 158.415C135.482 158.041 135.671 157.709 135.917 157.417C136.168 157.125 136.475 156.895 136.84 156.727C137.204 156.553 137.621 156.467 138.091 156.467C138.487 156.467 138.838 156.519 139.144 156.624C139.453 156.729 139.713 156.891 139.923 157.109C140.137 157.324 140.299 157.599 140.408 157.937C140.518 158.274 140.572 158.675 140.572 159.14V164H139.301V159.126C139.301 158.711 139.235 158.39 139.103 158.162C138.975 157.93 138.793 157.768 138.556 157.677C138.323 157.581 138.045 157.533 137.722 157.533C137.444 157.533 137.198 157.581 136.983 157.677C136.769 157.772 136.589 157.905 136.443 158.073C136.298 158.237 136.186 158.426 136.108 158.641C136.035 158.855 135.999 159.083 135.999 159.324ZM146.848 162.735V158.928C146.848 158.636 146.788 158.383 146.67 158.169C146.556 157.95 146.383 157.782 146.15 157.663C145.918 157.545 145.631 157.485 145.289 157.485C144.97 157.485 144.69 157.54 144.448 157.649C144.211 157.759 144.024 157.902 143.888 158.08C143.756 158.258 143.689 158.449 143.689 158.654H142.425C142.425 158.39 142.493 158.128 142.63 157.868C142.767 157.608 142.963 157.374 143.218 157.164C143.478 156.95 143.787 156.781 144.147 156.658C144.512 156.531 144.918 156.467 145.364 156.467C145.902 156.467 146.376 156.558 146.786 156.74C147.201 156.923 147.524 157.198 147.757 157.567C147.994 157.932 148.112 158.39 148.112 158.941V162.387C148.112 162.633 148.133 162.895 148.174 163.173C148.219 163.451 148.285 163.69 148.372 163.891V164H147.053C146.989 163.854 146.939 163.66 146.902 163.419C146.866 163.173 146.848 162.945 146.848 162.735ZM147.066 159.516L147.08 160.404H145.802C145.442 160.404 145.12 160.434 144.838 160.493C144.555 160.548 144.318 160.632 144.127 160.746C143.936 160.86 143.79 161.004 143.689 161.177C143.589 161.345 143.539 161.544 143.539 161.771C143.539 162.004 143.591 162.216 143.696 162.407C143.801 162.599 143.958 162.751 144.168 162.865C144.382 162.975 144.644 163.029 144.954 163.029C145.341 163.029 145.683 162.947 145.979 162.783C146.276 162.619 146.51 162.419 146.684 162.182C146.861 161.945 146.957 161.715 146.971 161.491L147.511 162.1C147.479 162.291 147.392 162.503 147.251 162.735C147.11 162.968 146.921 163.191 146.684 163.405C146.451 163.615 146.173 163.79 145.85 163.932C145.531 164.068 145.171 164.137 144.77 164.137C144.268 164.137 143.828 164.039 143.45 163.843C143.076 163.647 142.785 163.385 142.575 163.057C142.37 162.724 142.268 162.353 142.268 161.942C142.268 161.546 142.345 161.197 142.5 160.896C142.655 160.591 142.878 160.338 143.17 160.138C143.462 159.933 143.812 159.778 144.223 159.673C144.633 159.568 145.091 159.516 145.597 159.516H147.066ZM151.366 158.025V166.844H150.095V156.604H151.257L151.366 158.025ZM156.35 160.24V160.384C156.35 160.922 156.286 161.421 156.158 161.881C156.031 162.337 155.844 162.733 155.598 163.07C155.356 163.408 155.058 163.67 154.702 163.856C154.347 164.043 153.939 164.137 153.479 164.137C153.009 164.137 152.594 164.059 152.234 163.904C151.874 163.749 151.569 163.524 151.318 163.228C151.068 162.931 150.867 162.576 150.717 162.161C150.571 161.746 150.471 161.279 150.416 160.76V159.994C150.471 159.447 150.573 158.957 150.724 158.524C150.874 158.091 151.072 157.722 151.318 157.417C151.569 157.107 151.872 156.872 152.228 156.713C152.583 156.549 152.993 156.467 153.458 156.467C153.923 156.467 154.335 156.558 154.695 156.74C155.055 156.918 155.358 157.173 155.604 157.506C155.851 157.839 156.035 158.237 156.158 158.702C156.286 159.162 156.35 159.675 156.35 160.24ZM155.078 160.384V160.24C155.078 159.871 155.039 159.525 154.962 159.201C154.884 158.873 154.764 158.586 154.6 158.34C154.44 158.089 154.235 157.893 153.984 157.752C153.734 157.606 153.435 157.533 153.089 157.533C152.77 157.533 152.492 157.588 152.255 157.697C152.022 157.807 151.824 157.955 151.66 158.142C151.496 158.324 151.362 158.534 151.257 158.771C151.157 159.003 151.081 159.244 151.031 159.495V161.266C151.122 161.585 151.25 161.885 151.414 162.168C151.578 162.446 151.797 162.672 152.07 162.845C152.344 163.013 152.688 163.098 153.103 163.098C153.444 163.098 153.738 163.027 153.984 162.886C154.235 162.74 154.44 162.542 154.6 162.291C154.764 162.04 154.884 161.753 154.962 161.43C155.039 161.102 155.078 160.753 155.078 160.384Z" fill="white"/>
<path d="M45.7568 49.3281L48.7715 39.2031H51.707L47.251 52H45.3174L45.7568 49.3281ZM42.9795 39.2031L45.9854 49.3281L46.4424 52H44.4912L40.0615 39.2031H42.9795ZM55.416 42.4902V52H52.876V42.4902H55.416ZM52.7178 40.0117C52.7178 39.6426 52.8467 39.3379 53.1045 39.0977C53.3623 38.8574 53.708 38.7373 54.1416 38.7373C54.5693 38.7373 54.9121 38.8574 55.1699 39.0977C55.4336 39.3379 55.5654 39.6426 55.5654 40.0117C55.5654 40.3809 55.4336 40.6855 55.1699 40.9258C54.9121 41.166 54.5693 41.2861 54.1416 41.2861C53.708 41.2861 53.3623 41.166 53.1045 40.9258C52.8467 40.6855 52.7178 40.3809 52.7178 40.0117ZM62.6494 49.3721C62.6494 49.1904 62.5967 49.0264 62.4912 48.8799C62.3857 48.7334 62.1895 48.5986 61.9023 48.4756C61.6211 48.3467 61.2139 48.2295 60.6807 48.124C60.2002 48.0186 59.752 47.8867 59.3359 47.7285C58.9258 47.5645 58.5684 47.3682 58.2637 47.1396C57.9648 46.9111 57.7305 46.6416 57.5605 46.3311C57.3906 46.0146 57.3057 45.6543 57.3057 45.25C57.3057 44.8516 57.3906 44.4766 57.5605 44.125C57.7363 43.7734 57.9854 43.4629 58.3076 43.1934C58.6357 42.918 59.0342 42.7041 59.5029 42.5518C59.9775 42.3936 60.5107 42.3145 61.1025 42.3145C61.9287 42.3145 62.6377 42.4463 63.2295 42.71C63.8271 42.9736 64.2842 43.3369 64.6006 43.7998C64.9229 44.2568 65.084 44.7783 65.084 45.3643H62.5527C62.5527 45.1182 62.5 44.8984 62.3945 44.7051C62.2949 44.5059 62.1367 44.3506 61.9199 44.2393C61.709 44.1221 61.4336 44.0635 61.0938 44.0635C60.8125 44.0635 60.5693 44.1133 60.3643 44.2129C60.1592 44.3066 60.001 44.4355 59.8896 44.5996C59.7842 44.7578 59.7314 44.9336 59.7314 45.127C59.7314 45.2734 59.7607 45.4053 59.8193 45.5225C59.8838 45.6338 59.9863 45.7363 60.127 45.8301C60.2676 45.9238 60.4492 46.0117 60.6719 46.0938C60.9004 46.1699 61.1816 46.2402 61.5156 46.3047C62.2012 46.4453 62.8135 46.6299 63.3525 46.8584C63.8916 47.0811 64.3193 47.3857 64.6357 47.7725C64.9521 48.1533 65.1104 48.6543 65.1104 49.2754C65.1104 49.6973 65.0166 50.084 64.8291 50.4355C64.6416 50.7871 64.3721 51.0947 64.0205 51.3584C63.6689 51.6162 63.2471 51.8184 62.7549 51.9648C62.2686 52.1055 61.7207 52.1758 61.1113 52.1758C60.2266 52.1758 59.4766 52.0176 58.8613 51.7012C58.252 51.3848 57.7891 50.9834 57.4727 50.4971C57.1621 50.0049 57.0068 49.501 57.0068 48.9854H59.4062C59.418 49.3311 59.5059 49.6094 59.6699 49.8203C59.8398 50.0312 60.0537 50.1836 60.3115 50.2773C60.5752 50.3711 60.8594 50.418 61.1641 50.418C61.4922 50.418 61.7646 50.374 61.9814 50.2861C62.1982 50.1924 62.3623 50.0693 62.4736 49.917C62.5908 49.7588 62.6494 49.5771 62.6494 49.3721ZM69.4258 42.4902V52H66.8857V42.4902H69.4258ZM66.7275 40.0117C66.7275 39.6426 66.8564 39.3379 67.1143 39.0977C67.3721 38.8574 67.7178 38.7373 68.1514 38.7373C68.5791 38.7373 68.9219 38.8574 69.1797 39.0977C69.4434 39.3379 69.5752 39.6426 69.5752 40.0117C69.5752 40.3809 69.4434 40.6855 69.1797 40.9258C68.9219 41.166 68.5791 41.2861 68.1514 41.2861C67.7178 41.2861 67.3721 41.166 67.1143 40.9258C66.8564 40.6855 66.7275 40.3809 66.7275 40.0117ZM76.1758 42.4902V44.2832H70.6387V42.4902H76.1758ZM72.0098 40.1436H74.541V49.1348C74.541 49.4102 74.5762 49.6211 74.6465 49.7676C74.7227 49.9141 74.834 50.0166 74.9805 50.0752C75.127 50.1279 75.3115 50.1543 75.5342 50.1543C75.6924 50.1543 75.833 50.1484 75.9561 50.1367C76.085 50.1191 76.1934 50.1016 76.2812 50.084L76.29 51.9473C76.0732 52.0176 75.8389 52.0732 75.5869 52.1143C75.335 52.1553 75.0566 52.1758 74.752 52.1758C74.1953 52.1758 73.709 52.085 73.293 51.9033C72.8828 51.7158 72.5664 51.417 72.3438 51.0068C72.1211 50.5967 72.0098 50.0576 72.0098 49.3896V40.1436ZM87.7246 49.7236V42.4902H90.2559V52H87.874L87.7246 49.7236ZM88.0059 47.7725L88.7529 47.7549C88.7529 48.3877 88.6797 48.9766 88.5332 49.5215C88.3867 50.0605 88.167 50.5293 87.874 50.9277C87.5811 51.3203 87.2119 51.6279 86.7666 51.8506C86.3213 52.0674 85.7969 52.1758 85.1934 52.1758C84.7305 52.1758 84.3027 52.1113 83.9102 51.9824C83.5234 51.8477 83.1895 51.6396 82.9082 51.3584C82.6328 51.0713 82.416 50.7051 82.2578 50.2598C82.1055 49.8086 82.0293 49.2666 82.0293 48.6338V42.4902H84.5605V48.6514C84.5605 48.9326 84.5928 49.1699 84.6572 49.3633C84.7275 49.5566 84.8242 49.7148 84.9473 49.8379C85.0703 49.9609 85.2139 50.0488 85.3779 50.1016C85.5479 50.1543 85.7354 50.1807 85.9404 50.1807C86.4619 50.1807 86.8721 50.0752 87.1709 49.8643C87.4756 49.6533 87.6895 49.3662 87.8125 49.0029C87.9414 48.6338 88.0059 48.2236 88.0059 47.7725ZM97.3311 49.3721C97.3311 49.1904 97.2783 49.0264 97.1729 48.8799C97.0674 48.7334 96.8711 48.5986 96.584 48.4756C96.3027 48.3467 95.8955 48.2295 95.3623 48.124C94.8818 48.0186 94.4336 47.8867 94.0176 47.7285C93.6074 47.5645 93.25 47.3682 92.9453 47.1396C92.6465 46.9111 92.4121 46.6416 92.2422 46.3311C92.0723 46.0146 91.9873 45.6543 91.9873 45.25C91.9873 44.8516 92.0723 44.4766 92.2422 44.125C92.418 43.7734 92.667 43.4629 92.9893 43.1934C93.3174 42.918 93.7158 42.7041 94.1846 42.5518C94.6592 42.3936 95.1924 42.3145 95.7842 42.3145C96.6104 42.3145 97.3193 42.4463 97.9111 42.71C98.5088 42.9736 98.9658 43.3369 99.2822 43.7998C99.6045 44.2568 99.7656 44.7783 99.7656 45.3643H97.2344C97.2344 45.1182 97.1816 44.8984 97.0762 44.7051C96.9766 44.5059 96.8184 44.3506 96.6016 44.2393C96.3906 44.1221 96.1152 44.0635 95.7754 44.0635C95.4941 44.0635 95.251 44.1133 95.0459 44.2129C94.8408 44.3066 94.6826 44.4355 94.5713 44.5996C94.4658 44.7578 94.4131 44.9336 94.4131 45.127C94.4131 45.2734 94.4424 45.4053 94.501 45.5225C94.5654 45.6338 94.668 45.7363 94.8086 45.8301C94.9492 45.9238 95.1309 46.0117 95.3535 46.0938C95.582 46.1699 95.8633 46.2402 96.1973 46.3047C96.8828 46.4453 97.4951 46.6299 98.0342 46.8584C98.5732 47.0811 99.001 47.3857 99.3174 47.7725C99.6338 48.1533 99.792 48.6543 99.792 49.2754C99.792 49.6973 99.6982 50.084 99.5107 50.4355C99.3232 50.7871 99.0537 51.0947 98.7021 51.3584C98.3506 51.6162 97.9287 51.8184 97.4365 51.9648C96.9502 52.1055 96.4023 52.1758 95.793 52.1758C94.9082 52.1758 94.1582 52.0176 93.543 51.7012C92.9336 51.3848 92.4707 50.9834 92.1543 50.4971C91.8438 50.0049 91.6885 49.501 91.6885 48.9854H94.0879C94.0996 49.3311 94.1875 49.6094 94.3516 49.8203C94.5215 50.0312 94.7354 50.1836 94.9932 50.2773C95.2568 50.3711 95.541 50.418 95.8457 50.418C96.1738 50.418 96.4463 50.374 96.6631 50.2861C96.8799 50.1924 97.0439 50.0693 97.1553 49.917C97.2725 49.7588 97.3311 49.5771 97.3311 49.3721Z" fill="white"/>
<path d="M48.8184 84.709V85.3379C48.8184 86.0853 48.7249 86.7552 48.5381 87.3477C48.3512 87.9401 48.0824 88.4437 47.7314 88.8584C47.3805 89.2731 46.959 89.5898 46.4668 89.8086C45.9792 90.0273 45.4323 90.1367 44.8262 90.1367C44.2383 90.1367 43.6982 90.0273 43.2061 89.8086C42.7184 89.5898 42.2946 89.2731 41.9346 88.8584C41.5791 88.4437 41.3034 87.9401 41.1074 87.3477C40.9115 86.7552 40.8135 86.0853 40.8135 85.3379V84.709C40.8135 83.9616 40.9092 83.2939 41.1006 82.7061C41.2965 82.1136 41.5723 81.61 41.9277 81.1953C42.2832 80.776 42.7048 80.457 43.1924 80.2383C43.6846 80.0195 44.2246 79.9102 44.8125 79.9102C45.4186 79.9102 45.9655 80.0195 46.4531 80.2383C46.9453 80.457 47.3669 80.776 47.7178 81.1953C48.0732 81.61 48.3444 82.1136 48.5312 82.7061C48.7227 83.2939 48.8184 83.9616 48.8184 84.709ZM47.5127 85.3379V84.6953C47.5127 84.1029 47.4512 83.5788 47.3281 83.123C47.2096 82.6673 47.0342 82.2845 46.8018 81.9746C46.5693 81.6647 46.2845 81.43 45.9473 81.2705C45.6146 81.111 45.2363 81.0312 44.8125 81.0312C44.4023 81.0312 44.0309 81.111 43.6982 81.2705C43.3701 81.43 43.0876 81.6647 42.8506 81.9746C42.6182 82.2845 42.4382 82.6673 42.3105 83.123C42.1829 83.5788 42.1191 84.1029 42.1191 84.6953V85.3379C42.1191 85.9349 42.1829 86.4635 42.3105 86.9238C42.4382 87.3796 42.6204 87.7646 42.8574 88.0791C43.099 88.389 43.3838 88.6237 43.7119 88.7832C44.0446 88.9427 44.416 89.0225 44.8262 89.0225C45.2546 89.0225 45.6351 88.9427 45.9678 88.7832C46.3005 88.6237 46.5807 88.389 46.8086 88.0791C47.041 87.7646 47.2165 87.3796 47.335 86.9238C47.4535 86.4635 47.5127 85.9349 47.5127 85.3379ZM52.8516 88.8584L54.875 82.6035H56.167L53.5078 90H52.6602L52.8516 88.8584ZM51.1631 82.6035L53.248 88.8926L53.3916 90H52.5439L49.8643 82.6035H51.1631ZM60.3574 90.1367C59.8424 90.1367 59.3753 90.0501 58.9561 89.877C58.5413 89.6992 58.1836 89.4508 57.8828 89.1318C57.5866 88.8128 57.3587 88.4346 57.1992 87.9971C57.0397 87.5596 56.96 87.0811 56.96 86.5615V86.2744C56.96 85.6729 57.0488 85.1374 57.2266 84.668C57.4043 84.194 57.6458 83.793 57.9512 83.4648C58.2565 83.1367 58.6029 82.8883 58.9902 82.7197C59.3776 82.5511 59.7786 82.4668 60.1934 82.4668C60.722 82.4668 61.1777 82.5579 61.5605 82.7402C61.9479 82.9225 62.2646 83.1777 62.5107 83.5059C62.7568 83.8294 62.9391 84.2122 63.0576 84.6543C63.1761 85.0918 63.2354 85.5703 63.2354 86.0898V86.6572H57.7119V85.625H61.9707V85.5293C61.9525 85.2012 61.8841 84.8822 61.7656 84.5723C61.6517 84.2624 61.4694 84.0072 61.2188 83.8066C60.9681 83.6061 60.6263 83.5059 60.1934 83.5059C59.9062 83.5059 59.6419 83.5674 59.4004 83.6904C59.1589 83.8089 58.9515 83.9867 58.7783 84.2236C58.6051 84.4606 58.4707 84.75 58.375 85.0918C58.2793 85.4336 58.2314 85.8278 58.2314 86.2744V86.5615C58.2314 86.9124 58.2793 87.2428 58.375 87.5527C58.4753 87.8581 58.6188 88.127 58.8057 88.3594C58.9971 88.5918 59.2272 88.7741 59.4961 88.9062C59.7695 89.0384 60.0794 89.1045 60.4258 89.1045C60.8724 89.1045 61.2507 89.0133 61.5605 88.8311C61.8704 88.6488 62.1416 88.4049 62.374 88.0996L63.1396 88.708C62.9801 88.9495 62.7773 89.1797 62.5312 89.3984C62.2852 89.6172 61.9821 89.7949 61.6221 89.9316C61.2666 90.0684 60.8451 90.1367 60.3574 90.1367ZM65.9766 83.7656V90H64.7119V82.6035H65.9424L65.9766 83.7656ZM68.2871 82.5625L68.2803 83.7383C68.1755 83.7155 68.0752 83.7018 67.9795 83.6973C67.8883 83.6882 67.7835 83.6836 67.665 83.6836C67.3734 83.6836 67.1159 83.7292 66.8926 83.8203C66.6693 83.9115 66.4801 84.0391 66.3252 84.2031C66.1702 84.3672 66.0472 84.5632 65.9561 84.791C65.8695 85.0143 65.8125 85.2604 65.7852 85.5293L65.4297 85.7344C65.4297 85.2878 65.473 84.8685 65.5596 84.4766C65.6507 84.0846 65.7897 83.7383 65.9766 83.4375C66.1634 83.1322 66.4004 82.8952 66.6875 82.7266C66.9792 82.5534 67.3255 82.4668 67.7266 82.4668C67.8177 82.4668 67.9225 82.4782 68.041 82.501C68.1595 82.5192 68.2415 82.5397 68.2871 82.5625ZM74.6377 84.4014H75.54C75.9821 84.4014 76.3467 84.3285 76.6338 84.1826C76.9255 84.0322 77.1419 83.8294 77.2832 83.5742C77.429 83.3145 77.502 83.0228 77.502 82.6992C77.502 82.3164 77.4382 81.9951 77.3105 81.7354C77.1829 81.4756 76.9915 81.2796 76.7363 81.1475C76.4811 81.0153 76.1576 80.9492 75.7656 80.9492C75.4102 80.9492 75.0957 81.0199 74.8223 81.1611C74.5534 81.2979 74.3415 81.4938 74.1865 81.749C74.0361 82.0042 73.9609 82.305 73.9609 82.6514H72.6963C72.6963 82.1455 72.8239 81.6852 73.0791 81.2705C73.3343 80.8558 73.6921 80.5254 74.1523 80.2793C74.6172 80.0332 75.1549 79.9102 75.7656 79.9102C76.3672 79.9102 76.8936 80.0173 77.3447 80.2314C77.7959 80.4411 78.1468 80.7555 78.3975 81.1748C78.6481 81.5895 78.7734 82.1068 78.7734 82.7266C78.7734 82.9772 78.7142 83.2461 78.5957 83.5332C78.4818 83.8158 78.3018 84.0801 78.0557 84.3262C77.8141 84.5723 77.4997 84.7751 77.1123 84.9346C76.7249 85.0895 76.2601 85.167 75.7178 85.167H74.6377V84.4014ZM74.6377 85.4404V84.6816H75.7178C76.3512 84.6816 76.8753 84.7568 77.29 84.9072C77.7048 85.0576 78.0306 85.2581 78.2676 85.5088C78.5091 85.7594 78.6777 86.0352 78.7734 86.3359C78.8737 86.6322 78.9238 86.9284 78.9238 87.2246C78.9238 87.6895 78.8441 88.1019 78.6846 88.4619C78.5296 88.8219 78.3086 89.1273 78.0215 89.3779C77.7389 89.6286 77.4062 89.8177 77.0234 89.9453C76.6406 90.0729 76.2236 90.1367 75.7725 90.1367C75.3395 90.1367 74.9316 90.0752 74.5488 89.9521C74.1706 89.8291 73.8356 89.6514 73.5439 89.4189C73.2523 89.182 73.0244 88.8926 72.8604 88.5508C72.6963 88.2044 72.6143 87.8102 72.6143 87.3682H73.8789C73.8789 87.7145 73.9541 88.0176 74.1045 88.2773C74.2594 88.5371 74.4782 88.7399 74.7607 88.8857C75.0479 89.027 75.3851 89.0977 75.7725 89.0977C76.1598 89.0977 76.4925 89.0316 76.7705 88.8994C77.0531 88.7627 77.2695 88.5576 77.4199 88.2842C77.5749 88.0107 77.6523 87.6667 77.6523 87.252C77.6523 86.8372 77.5658 86.4977 77.3926 86.2334C77.2194 85.9645 76.9733 85.7663 76.6543 85.6387C76.3398 85.5065 75.9684 85.4404 75.54 85.4404H74.6377ZM86.915 84.2305V85.748C86.915 86.5638 86.8421 87.252 86.6963 87.8125C86.5505 88.373 86.3408 88.8242 86.0674 89.166C85.7939 89.5078 85.4635 89.7562 85.0762 89.9111C84.6934 90.0615 84.2604 90.1367 83.7773 90.1367C83.3945 90.1367 83.0413 90.0889 82.7178 89.9932C82.3942 89.8975 82.1025 89.7448 81.8428 89.5352C81.5876 89.321 81.3688 89.043 81.1865 88.7012C81.0042 88.3594 80.8652 87.9447 80.7695 87.457C80.6738 86.9694 80.626 86.3997 80.626 85.748V84.2305C80.626 83.4147 80.6989 82.7311 80.8447 82.1797C80.9951 81.6283 81.207 81.1862 81.4805 80.8535C81.7539 80.5163 82.082 80.2747 82.4648 80.1289C82.8522 79.9831 83.2852 79.9102 83.7637 79.9102C84.151 79.9102 84.5065 79.958 84.8301 80.0537C85.1582 80.1449 85.4499 80.293 85.7051 80.498C85.9603 80.6986 86.1768 80.9674 86.3545 81.3047C86.5368 81.6374 86.6758 82.0452 86.7715 82.5283C86.8672 83.0114 86.915 83.5788 86.915 84.2305ZM85.6436 85.9531V84.0186C85.6436 83.5719 85.6162 83.18 85.5615 82.8428C85.5114 82.501 85.4362 82.2093 85.3359 81.9678C85.2357 81.7262 85.1081 81.5303 84.9531 81.3799C84.8027 81.2295 84.6273 81.1201 84.4268 81.0518C84.2308 80.9788 84.0098 80.9424 83.7637 80.9424C83.4629 80.9424 83.1963 80.9993 82.9639 81.1133C82.7314 81.2227 82.5355 81.3981 82.376 81.6396C82.221 81.8812 82.1025 82.1979 82.0205 82.5898C81.9385 82.9818 81.8975 83.458 81.8975 84.0186V85.9531C81.8975 86.3997 81.9225 86.7939 81.9727 87.1357C82.0273 87.4775 82.1071 87.7738 82.2119 88.0244C82.3167 88.2705 82.4443 88.4733 82.5947 88.6328C82.7451 88.7923 82.9183 88.9108 83.1143 88.9883C83.3148 89.0612 83.5358 89.0977 83.7773 89.0977C84.0872 89.0977 84.3584 89.0384 84.5908 88.9199C84.8232 88.8014 85.0169 88.6169 85.1719 88.3662C85.3314 88.111 85.4499 87.7852 85.5273 87.3887C85.6048 86.9876 85.6436 86.5091 85.6436 85.9531ZM94.79 84.2305V85.748C94.79 86.5638 94.7171 87.252 94.5713 87.8125C94.4255 88.373 94.2158 88.8242 93.9424 89.166C93.6689 89.5078 93.3385 89.7562 92.9512 89.9111C92.5684 90.0615 92.1354 90.1367 91.6523 90.1367C91.2695 90.1367 90.9163 90.0889 90.5928 89.9932C90.2692 89.8975 89.9775 89.7448 89.7178 89.5352C89.4626 89.321 89.2438 89.043 89.0615 88.7012C88.8792 88.3594 88.7402 87.9447 88.6445 87.457C88.5488 86.9694 88.501 86.3997 88.501 85.748V84.2305C88.501 83.4147 88.5739 82.7311 88.7197 82.1797C88.8701 81.6283 89.082 81.1862 89.3555 80.8535C89.6289 80.5163 89.957 80.2747 90.3398 80.1289C90.7272 79.9831 91.1602 79.9102 91.6387 79.9102C92.026 79.9102 92.3815 79.958 92.7051 80.0537C93.0332 80.1449 93.3249 80.293 93.5801 80.498C93.8353 80.6986 94.0518 80.9674 94.2295 81.3047C94.4118 81.6374 94.5508 82.0452 94.6465 82.5283C94.7422 83.0114 94.79 83.5788 94.79 84.2305ZM93.5186 85.9531V84.0186C93.5186 83.5719 93.4912 83.18 93.4365 82.8428C93.3864 82.501 93.3112 82.2093 93.2109 81.9678C93.1107 81.7262 92.9831 81.5303 92.8281 81.3799C92.6777 81.2295 92.5023 81.1201 92.3018 81.0518C92.1058 80.9788 91.8848 80.9424 91.6387 80.9424C91.3379 80.9424 91.0713 80.9993 90.8389 81.1133C90.6064 81.2227 90.4105 81.3981 90.251 81.6396C90.096 81.8812 89.9775 82.1979 89.8955 82.5898C89.8135 82.9818 89.7725 83.458 89.7725 84.0186V85.9531C89.7725 86.3997 89.7975 86.7939 89.8477 87.1357C89.9023 87.4775 89.9821 87.7738 90.0869 88.0244C90.1917 88.2705 90.3193 88.4733 90.4697 88.6328C90.6201 88.7923 90.7933 88.9108 90.9893 88.9883C91.1898 89.0612 91.4108 89.0977 91.6523 89.0977C91.9622 89.0977 92.2334 89.0384 92.4658 88.9199C92.6982 88.8014 92.8919 88.6169 93.0469 88.3662C93.2064 88.111 93.3249 87.7852 93.4023 87.3887C93.4798 86.9876 93.5186 86.5091 93.5186 85.9531ZM104.333 88.0381C104.333 87.8558 104.292 87.6872 104.21 87.5322C104.132 87.3727 103.971 87.2292 103.725 87.1016C103.483 86.9694 103.118 86.8555 102.631 86.7598C102.221 86.6732 101.849 86.5706 101.517 86.4521C101.188 86.3337 100.908 86.1901 100.676 86.0215C100.448 85.8529 100.272 85.6546 100.149 85.4268C100.026 85.1989 99.9648 84.9323 99.9648 84.627C99.9648 84.3353 100.029 84.0596 100.156 83.7998C100.288 83.54 100.473 83.3099 100.71 83.1094C100.951 82.9089 101.241 82.7516 101.578 82.6377C101.915 82.5238 102.291 82.4668 102.706 82.4668C103.299 82.4668 103.804 82.5716 104.224 82.7812C104.643 82.9909 104.964 83.2712 105.188 83.6221C105.411 83.9684 105.522 84.3535 105.522 84.7773H104.258C104.258 84.5723 104.196 84.374 104.073 84.1826C103.955 83.9867 103.779 83.8249 103.547 83.6973C103.319 83.5697 103.039 83.5059 102.706 83.5059C102.355 83.5059 102.07 83.5605 101.852 83.6699C101.637 83.7747 101.48 83.9092 101.38 84.0732C101.284 84.2373 101.236 84.4105 101.236 84.5928C101.236 84.7295 101.259 84.8525 101.305 84.9619C101.355 85.0667 101.441 85.1647 101.564 85.2559C101.688 85.3424 101.861 85.4245 102.084 85.502C102.307 85.5794 102.592 85.6569 102.938 85.7344C103.545 85.8711 104.044 86.0352 104.436 86.2266C104.827 86.418 105.119 86.6527 105.311 86.9307C105.502 87.2087 105.598 87.5459 105.598 87.9424C105.598 88.266 105.529 88.5622 105.393 88.8311C105.26 89.0999 105.067 89.3324 104.812 89.5283C104.561 89.7197 104.26 89.8701 103.909 89.9795C103.563 90.0843 103.173 90.1367 102.74 90.1367C102.089 90.1367 101.537 90.0205 101.086 89.7881C100.635 89.5557 100.293 89.2549 100.061 88.8857C99.8281 88.5166 99.7119 88.127 99.7119 87.7168H100.983C101.002 88.0632 101.102 88.3389 101.284 88.5439C101.466 88.7445 101.69 88.888 101.954 88.9746C102.218 89.0566 102.48 89.0977 102.74 89.0977C103.087 89.0977 103.376 89.0521 103.608 88.9609C103.845 88.8698 104.025 88.7445 104.148 88.585C104.271 88.4255 104.333 88.2432 104.333 88.0381ZM110.355 82.6035V83.5742H106.356V82.6035H110.355ZM107.71 80.8057H108.975V88.168C108.975 88.4186 109.013 88.6077 109.091 88.7354C109.168 88.863 109.269 88.9473 109.392 88.9883C109.515 89.0293 109.647 89.0498 109.788 89.0498C109.893 89.0498 110.002 89.0407 110.116 89.0225C110.235 88.9997 110.324 88.9814 110.383 88.9678L110.39 90C110.289 90.0319 110.157 90.0615 109.993 90.0889C109.834 90.1208 109.64 90.1367 109.412 90.1367C109.102 90.1367 108.817 90.0752 108.558 89.9521C108.298 89.8291 108.09 89.624 107.936 89.3369C107.785 89.0452 107.71 88.6533 107.71 88.1611V80.8057ZM111.367 86.3838V86.2266C111.367 85.6934 111.445 85.1989 111.6 84.7432C111.755 84.2829 111.978 83.8841 112.27 83.5469C112.561 83.2051 112.914 82.9408 113.329 82.7539C113.744 82.5625 114.209 82.4668 114.724 82.4668C115.243 82.4668 115.71 82.5625 116.125 82.7539C116.544 82.9408 116.9 83.2051 117.191 83.5469C117.488 83.8841 117.713 84.2829 117.868 84.7432C118.023 85.1989 118.101 85.6934 118.101 86.2266V86.3838C118.101 86.917 118.023 87.4115 117.868 87.8672C117.713 88.3229 117.488 88.7217 117.191 89.0635C116.9 89.4007 116.547 89.665 116.132 89.8564C115.722 90.0433 115.257 90.1367 114.737 90.1367C114.218 90.1367 113.751 90.0433 113.336 89.8564C112.921 89.665 112.566 89.4007 112.27 89.0635C111.978 88.7217 111.755 88.3229 111.6 87.8672C111.445 87.4115 111.367 86.917 111.367 86.3838ZM112.632 86.2266V86.3838C112.632 86.7529 112.675 87.1016 112.762 87.4297C112.848 87.7533 112.978 88.0404 113.151 88.291C113.329 88.5417 113.55 88.7399 113.814 88.8857C114.079 89.027 114.386 89.0977 114.737 89.0977C115.084 89.0977 115.387 89.027 115.646 88.8857C115.911 88.7399 116.13 88.5417 116.303 88.291C116.476 88.0404 116.606 87.7533 116.692 87.4297C116.784 87.1016 116.829 86.7529 116.829 86.3838V86.2266C116.829 85.862 116.784 85.5179 116.692 85.1943C116.606 84.8662 116.474 84.5768 116.296 84.3262C116.123 84.071 115.904 83.8704 115.64 83.7246C115.38 83.5788 115.075 83.5059 114.724 83.5059C114.377 83.5059 114.072 83.5788 113.808 83.7246C113.548 83.8704 113.329 84.071 113.151 84.3262C112.978 84.5768 112.848 84.8662 112.762 85.1943C112.675 85.5179 112.632 85.862 112.632 86.2266ZM120.951 83.7656V90H119.687V82.6035H120.917L120.951 83.7656ZM123.262 82.5625L123.255 83.7383C123.15 83.7155 123.05 83.7018 122.954 83.6973C122.863 83.6882 122.758 83.6836 122.64 83.6836C122.348 83.6836 122.09 83.7292 121.867 83.8203C121.644 83.9115 121.455 84.0391 121.3 84.2031C121.145 84.3672 121.022 84.5632 120.931 84.791C120.844 85.0143 120.787 85.2604 120.76 85.5293L120.404 85.7344C120.404 85.2878 120.448 84.8685 120.534 84.4766C120.625 84.0846 120.764 83.7383 120.951 83.4375C121.138 83.1322 121.375 82.8952 121.662 82.7266C121.954 82.5534 122.3 82.4668 122.701 82.4668C122.792 82.4668 122.897 82.4782 123.016 82.501C123.134 82.5192 123.216 82.5397 123.262 82.5625ZM127.363 90.1367C126.848 90.1367 126.381 90.0501 125.962 89.877C125.547 89.6992 125.189 89.4508 124.889 89.1318C124.592 88.8128 124.365 88.4346 124.205 87.9971C124.046 87.5596 123.966 87.0811 123.966 86.5615V86.2744C123.966 85.6729 124.055 85.1374 124.232 84.668C124.41 84.194 124.652 83.793 124.957 83.4648C125.262 83.1367 125.609 82.8883 125.996 82.7197C126.383 82.5511 126.785 82.4668 127.199 82.4668C127.728 82.4668 128.184 82.5579 128.566 82.7402C128.954 82.9225 129.271 83.1777 129.517 83.5059C129.763 83.8294 129.945 84.2122 130.063 84.6543C130.182 85.0918 130.241 85.5703 130.241 86.0898V86.6572H124.718V85.625H128.977V85.5293C128.958 85.2012 128.89 84.8822 128.771 84.5723C128.658 84.2624 128.475 84.0072 128.225 83.8066C127.974 83.6061 127.632 83.5059 127.199 83.5059C126.912 83.5059 126.648 83.5674 126.406 83.6904C126.165 83.8089 125.957 83.9867 125.784 84.2236C125.611 84.4606 125.477 84.75 125.381 85.0918C125.285 85.4336 125.237 85.8278 125.237 86.2744V86.5615C125.237 86.9124 125.285 87.2428 125.381 87.5527C125.481 87.8581 125.625 88.127 125.812 88.3594C126.003 88.5918 126.233 88.7741 126.502 88.9062C126.775 89.0384 127.085 89.1045 127.432 89.1045C127.878 89.1045 128.257 89.0133 128.566 88.8311C128.876 88.6488 129.147 88.4049 129.38 88.0996L130.146 88.708C129.986 88.9495 129.783 89.1797 129.537 89.3984C129.291 89.6172 128.988 89.7949 128.628 89.9316C128.272 90.0684 127.851 90.1367 127.363 90.1367ZM136.024 88.0381C136.024 87.8558 135.983 87.6872 135.901 87.5322C135.824 87.3727 135.662 87.2292 135.416 87.1016C135.174 86.9694 134.81 86.8555 134.322 86.7598C133.912 86.6732 133.541 86.5706 133.208 86.4521C132.88 86.3337 132.6 86.1901 132.367 86.0215C132.139 85.8529 131.964 85.6546 131.841 85.4268C131.718 85.1989 131.656 84.9323 131.656 84.627C131.656 84.3353 131.72 84.0596 131.848 83.7998C131.98 83.54 132.164 83.3099 132.401 83.1094C132.643 82.9089 132.932 82.7516 133.27 82.6377C133.607 82.5238 133.983 82.4668 134.397 82.4668C134.99 82.4668 135.496 82.5716 135.915 82.7812C136.334 82.9909 136.656 83.2712 136.879 83.6221C137.102 83.9684 137.214 84.3535 137.214 84.7773H135.949C135.949 84.5723 135.888 84.374 135.765 84.1826C135.646 83.9867 135.471 83.8249 135.238 83.6973C135.01 83.5697 134.73 83.5059 134.397 83.5059C134.047 83.5059 133.762 83.5605 133.543 83.6699C133.329 83.7747 133.172 83.9092 133.071 84.0732C132.976 84.2373 132.928 84.4105 132.928 84.5928C132.928 84.7295 132.951 84.8525 132.996 84.9619C133.046 85.0667 133.133 85.1647 133.256 85.2559C133.379 85.3424 133.552 85.4245 133.775 85.502C133.999 85.5794 134.284 85.6569 134.63 85.7344C135.236 85.8711 135.735 86.0352 136.127 86.2266C136.519 86.418 136.811 86.6527 137.002 86.9307C137.193 87.2087 137.289 87.5459 137.289 87.9424C137.289 88.266 137.221 88.5622 137.084 88.8311C136.952 89.0999 136.758 89.3324 136.503 89.5283C136.252 89.7197 135.951 89.8701 135.601 89.9795C135.254 90.0843 134.865 90.1367 134.432 90.1367C133.78 90.1367 133.229 90.0205 132.777 89.7881C132.326 89.5557 131.984 89.2549 131.752 88.8857C131.52 88.5166 131.403 88.127 131.403 87.7168H132.675C132.693 88.0632 132.793 88.3389 132.976 88.5439C133.158 88.7445 133.381 88.888 133.646 88.9746C133.91 89.0566 134.172 89.0977 134.432 89.0977C134.778 89.0977 135.067 89.0521 135.3 88.9609C135.537 88.8698 135.717 88.7445 135.84 88.585C135.963 88.4255 136.024 88.2432 136.024 88.0381ZM44.0605 102.604V103.574H40.0615V102.604H44.0605ZM41.415 100.806H42.6797V108.168C42.6797 108.419 42.7184 108.608 42.7959 108.735C42.8734 108.863 42.9736 108.947 43.0967 108.988C43.2197 109.029 43.3519 109.05 43.4932 109.05C43.598 109.05 43.7074 109.041 43.8213 109.022C43.9398 109 44.0286 108.981 44.0879 108.968L44.0947 110C43.9945 110.032 43.8623 110.062 43.6982 110.089C43.5387 110.121 43.3451 110.137 43.1172 110.137C42.8073 110.137 42.5225 110.075 42.2627 109.952C42.0029 109.829 41.7956 109.624 41.6406 109.337C41.4902 109.045 41.415 108.653 41.415 108.161V100.806ZM46.8086 99.5V110H45.5439V99.5H46.8086ZM46.5078 106.021L45.9814 106.001C45.986 105.495 46.0612 105.028 46.207 104.6C46.3529 104.167 46.5579 103.791 46.8223 103.472C47.0866 103.153 47.401 102.907 47.7656 102.733C48.1348 102.556 48.5426 102.467 48.9893 102.467C49.3538 102.467 49.682 102.517 49.9736 102.617C50.2653 102.713 50.5137 102.868 50.7188 103.082C50.9284 103.296 51.0879 103.574 51.1973 103.916C51.3066 104.253 51.3613 104.666 51.3613 105.153V110H50.0898V105.14C50.0898 104.752 50.0329 104.442 49.9189 104.21C49.805 103.973 49.6387 103.802 49.4199 103.697C49.2012 103.588 48.9323 103.533 48.6133 103.533C48.2988 103.533 48.0117 103.599 47.752 103.731C47.4967 103.864 47.2757 104.046 47.0889 104.278C46.9066 104.511 46.763 104.777 46.6582 105.078C46.5579 105.374 46.5078 105.689 46.5078 106.021ZM54.5195 103.766V110H53.2549V102.604H54.4854L54.5195 103.766ZM56.8301 102.562L56.8232 103.738C56.7184 103.715 56.6182 103.702 56.5225 103.697C56.4313 103.688 56.3265 103.684 56.208 103.684C55.9163 103.684 55.6589 103.729 55.4355 103.82C55.2122 103.911 55.0231 104.039 54.8682 104.203C54.7132 104.367 54.5902 104.563 54.499 104.791C54.4124 105.014 54.3555 105.26 54.3281 105.529L53.9727 105.734C53.9727 105.288 54.016 104.868 54.1025 104.477C54.1937 104.085 54.3327 103.738 54.5195 103.438C54.7064 103.132 54.9434 102.895 55.2305 102.727C55.5221 102.553 55.8685 102.467 56.2695 102.467C56.3607 102.467 56.4655 102.478 56.584 102.501C56.7025 102.519 56.7845 102.54 56.8301 102.562ZM57.5273 106.384V106.227C57.5273 105.693 57.6048 105.199 57.7598 104.743C57.9147 104.283 58.138 103.884 58.4297 103.547C58.7214 103.205 59.0745 102.941 59.4893 102.754C59.904 102.562 60.3688 102.467 60.8838 102.467C61.4033 102.467 61.8704 102.562 62.2852 102.754C62.7044 102.941 63.0599 103.205 63.3516 103.547C63.6478 103.884 63.8734 104.283 64.0283 104.743C64.1833 105.199 64.2607 105.693 64.2607 106.227V106.384C64.2607 106.917 64.1833 107.411 64.0283 107.867C63.8734 108.323 63.6478 108.722 63.3516 109.063C63.0599 109.401 62.7067 109.665 62.292 109.856C61.8818 110.043 61.417 110.137 60.8975 110.137C60.3779 110.137 59.9108 110.043 59.4961 109.856C59.0814 109.665 58.7259 109.401 58.4297 109.063C58.138 108.722 57.9147 108.323 57.7598 107.867C57.6048 107.411 57.5273 106.917 57.5273 106.384ZM58.792 106.227V106.384C58.792 106.753 58.8353 107.102 58.9219 107.43C59.0085 107.753 59.1383 108.04 59.3115 108.291C59.4893 108.542 59.7103 108.74 59.9746 108.886C60.2389 109.027 60.5465 109.098 60.8975 109.098C61.2438 109.098 61.5469 109.027 61.8066 108.886C62.071 108.74 62.2897 108.542 62.4629 108.291C62.6361 108.04 62.766 107.753 62.8525 107.43C62.9437 107.102 62.9893 106.753 62.9893 106.384V106.227C62.9893 105.862 62.9437 105.518 62.8525 105.194C62.766 104.866 62.6338 104.577 62.4561 104.326C62.2829 104.071 62.0641 103.87 61.7998 103.725C61.54 103.579 61.2347 103.506 60.8838 103.506C60.5374 103.506 60.2321 103.579 59.9678 103.725C59.708 103.87 59.4893 104.071 59.3115 104.326C59.1383 104.577 59.0085 104.866 58.9219 105.194C58.8353 105.518 58.792 105.862 58.792 106.227ZM70.3721 108.291V102.604H71.6436V110H70.4336L70.3721 108.291ZM70.6113 106.732L71.1377 106.719C71.1377 107.211 71.0853 107.667 70.9805 108.086C70.8802 108.501 70.7161 108.861 70.4883 109.166C70.2604 109.471 69.9619 109.711 69.5928 109.884C69.2236 110.052 68.7747 110.137 68.2461 110.137C67.8861 110.137 67.5557 110.084 67.2549 109.979C66.9587 109.875 66.7035 109.713 66.4893 109.494C66.2751 109.275 66.1087 108.991 65.9902 108.64C65.8763 108.289 65.8193 107.867 65.8193 107.375V102.604H67.084V107.389C67.084 107.721 67.1204 107.997 67.1934 108.216C67.2708 108.43 67.3734 108.601 67.501 108.729C67.6331 108.852 67.779 108.938 67.9385 108.988C68.1025 109.038 68.2712 109.063 68.4443 109.063C68.9821 109.063 69.4082 108.961 69.7227 108.756C70.0371 108.546 70.2627 108.266 70.3994 107.915C70.5407 107.56 70.6113 107.165 70.6113 106.732ZM78.3633 102.604H79.5117V109.843C79.5117 110.494 79.3796 111.05 79.1152 111.511C78.8509 111.971 78.4818 112.32 78.0078 112.557C77.5384 112.798 76.9961 112.919 76.3809 112.919C76.1257 112.919 75.8249 112.878 75.4785 112.796C75.1367 112.718 74.7995 112.584 74.4668 112.393C74.1387 112.206 73.863 111.953 73.6396 111.634L74.3027 110.882C74.6126 111.256 74.9362 111.515 75.2734 111.661C75.6152 111.807 75.9525 111.88 76.2852 111.88C76.6862 111.88 77.0326 111.805 77.3242 111.654C77.6159 111.504 77.8415 111.281 78.001 110.984C78.165 110.693 78.2471 110.333 78.2471 109.904V104.23L78.3633 102.604ZM73.2705 106.384V106.24C73.2705 105.675 73.3366 105.162 73.4688 104.702C73.6055 104.237 73.7992 103.839 74.0498 103.506C74.305 103.173 74.6126 102.918 74.9727 102.74C75.3327 102.558 75.7383 102.467 76.1895 102.467C76.6543 102.467 77.0599 102.549 77.4062 102.713C77.7572 102.872 78.0534 103.107 78.2949 103.417C78.541 103.722 78.7347 104.091 78.876 104.524C79.0173 104.957 79.1152 105.447 79.1699 105.994V106.623C79.1198 107.165 79.0218 107.653 78.876 108.086C78.7347 108.519 78.541 108.888 78.2949 109.193C78.0534 109.499 77.7572 109.733 77.4062 109.897C77.0553 110.057 76.6452 110.137 76.1758 110.137C75.7337 110.137 75.3327 110.043 74.9727 109.856C74.6172 109.67 74.3118 109.408 74.0566 109.07C73.8014 108.733 73.6055 108.337 73.4688 107.881C73.3366 107.421 73.2705 106.922 73.2705 106.384ZM74.5352 106.24V106.384C74.5352 106.753 74.5716 107.099 74.6445 107.423C74.722 107.746 74.8382 108.031 74.9932 108.277C75.1527 108.523 75.3555 108.717 75.6016 108.858C75.8477 108.995 76.1416 109.063 76.4834 109.063C76.9027 109.063 77.249 108.975 77.5225 108.797C77.7959 108.619 78.0124 108.384 78.1719 108.093C78.3359 107.801 78.4635 107.484 78.5547 107.143V105.495C78.5046 105.244 78.4271 105.003 78.3223 104.771C78.222 104.534 78.0898 104.324 77.9258 104.142C77.7663 103.955 77.568 103.807 77.3311 103.697C77.0941 103.588 76.8161 103.533 76.4971 103.533C76.1507 103.533 75.8522 103.606 75.6016 103.752C75.3555 103.893 75.1527 104.089 74.9932 104.34C74.8382 104.586 74.722 104.873 74.6445 105.201C74.5716 105.525 74.5352 105.871 74.5352 106.24ZM82.6973 99.5V110H81.4326V99.5H82.6973ZM82.3965 106.021L81.8701 106.001C81.8747 105.495 81.9499 105.028 82.0957 104.6C82.2415 104.167 82.4466 103.791 82.7109 103.472C82.9753 103.153 83.2897 102.907 83.6543 102.733C84.0234 102.556 84.4313 102.467 84.8779 102.467C85.2425 102.467 85.5706 102.517 85.8623 102.617C86.154 102.713 86.4023 102.868 86.6074 103.082C86.8171 103.296 86.9766 103.574 87.0859 103.916C87.1953 104.253 87.25 104.666 87.25 105.153V110H85.9785V105.14C85.9785 104.752 85.9215 104.442 85.8076 104.21C85.6937 103.973 85.5273 103.802 85.3086 103.697C85.0898 103.588 84.821 103.533 84.502 103.533C84.1875 103.533 83.9004 103.599 83.6406 103.731C83.3854 103.864 83.1644 104.046 82.9775 104.278C82.7952 104.511 82.6517 104.777 82.5469 105.078C82.4466 105.374 82.3965 105.689 82.3965 106.021ZM88.8086 106.384V106.227C88.8086 105.693 88.8861 105.199 89.041 104.743C89.196 104.283 89.4193 103.884 89.7109 103.547C90.0026 103.205 90.3558 102.941 90.7705 102.754C91.1852 102.562 91.6501 102.467 92.165 102.467C92.6846 102.467 93.1517 102.562 93.5664 102.754C93.9857 102.941 94.3411 103.205 94.6328 103.547C94.929 103.884 95.1546 104.283 95.3096 104.743C95.4645 105.199 95.542 105.693 95.542 106.227V106.384C95.542 106.917 95.4645 107.411 95.3096 107.867C95.1546 108.323 94.929 108.722 94.6328 109.063C94.3411 109.401 93.988 109.665 93.5732 109.856C93.1631 110.043 92.6982 110.137 92.1787 110.137C91.6592 110.137 91.1921 110.043 90.7773 109.856C90.3626 109.665 90.0072 109.401 89.7109 109.063C89.4193 108.722 89.196 108.323 89.041 107.867C88.8861 107.411 88.8086 106.917 88.8086 106.384ZM90.0732 106.227V106.384C90.0732 106.753 90.1165 107.102 90.2031 107.43C90.2897 107.753 90.4196 108.04 90.5928 108.291C90.7705 108.542 90.9915 108.74 91.2559 108.886C91.5202 109.027 91.8278 109.098 92.1787 109.098C92.5251 109.098 92.8281 109.027 93.0879 108.886C93.3522 108.74 93.571 108.542 93.7441 108.291C93.9173 108.04 94.0472 107.753 94.1338 107.43C94.2249 107.102 94.2705 106.753 94.2705 106.384V106.227C94.2705 105.862 94.2249 105.518 94.1338 105.194C94.0472 104.866 93.915 104.577 93.7373 104.326C93.5641 104.071 93.3454 103.87 93.0811 103.725C92.8213 103.579 92.516 103.506 92.165 103.506C91.8187 103.506 91.5133 103.579 91.249 103.725C90.9893 103.87 90.7705 104.071 90.5928 104.326C90.4196 104.577 90.2897 104.866 90.2031 105.194C90.1165 105.518 90.0732 105.862 90.0732 106.227ZM101.653 108.291V102.604H102.925V110H101.715L101.653 108.291ZM101.893 106.732L102.419 106.719C102.419 107.211 102.367 107.667 102.262 108.086C102.161 108.501 101.997 108.861 101.77 109.166C101.542 109.471 101.243 109.711 100.874 109.884C100.505 110.052 100.056 110.137 99.5273 110.137C99.1673 110.137 98.8369 110.084 98.5361 109.979C98.2399 109.875 97.9847 109.713 97.7705 109.494C97.5563 109.275 97.39 108.991 97.2715 108.64C97.1576 108.289 97.1006 107.867 97.1006 107.375V102.604H98.3652V107.389C98.3652 107.721 98.4017 107.997 98.4746 108.216C98.5521 108.43 98.6546 108.601 98.7822 108.729C98.9144 108.852 99.0602 108.938 99.2197 108.988C99.3838 109.038 99.5524 109.063 99.7256 109.063C100.263 109.063 100.689 108.961 101.004 108.756C101.318 108.546 101.544 108.266 101.681 107.915C101.822 107.56 101.893 107.165 101.893 106.732ZM107.949 102.604V103.574H103.95V102.604H107.949ZM105.304 100.806H106.568V108.168C106.568 108.419 106.607 108.608 106.685 108.735C106.762 108.863 106.862 108.947 106.985 108.988C107.108 109.029 107.241 109.05 107.382 109.05C107.487 109.05 107.596 109.041 107.71 109.022C107.828 109 107.917 108.981 107.977 108.968L107.983 110C107.883 110.032 107.751 110.062 107.587 110.089C107.427 110.121 107.234 110.137 107.006 110.137C106.696 110.137 106.411 110.075 106.151 109.952C105.892 109.829 105.684 109.624 105.529 109.337C105.379 109.045 105.304 108.653 105.304 108.161V100.806ZM116.002 102.604V103.574H112.003V102.604H116.002ZM113.356 100.806H114.621V108.168C114.621 108.419 114.66 108.608 114.737 108.735C114.815 108.863 114.915 108.947 115.038 108.988C115.161 109.029 115.293 109.05 115.435 109.05C115.539 109.05 115.649 109.041 115.763 109.022C115.881 109 115.97 108.981 116.029 108.968L116.036 110C115.936 110.032 115.804 110.062 115.64 110.089C115.48 110.121 115.286 110.137 115.059 110.137C114.749 110.137 114.464 110.075 114.204 109.952C113.944 109.829 113.737 109.624 113.582 109.337C113.432 109.045 113.356 108.653 113.356 108.161V100.806ZM118.75 99.5V110H117.485V99.5H118.75ZM118.449 106.021L117.923 106.001C117.927 105.495 118.003 105.028 118.148 104.6C118.294 104.167 118.499 103.791 118.764 103.472C119.028 103.153 119.342 102.907 119.707 102.733C120.076 102.556 120.484 102.467 120.931 102.467C121.295 102.467 121.623 102.517 121.915 102.617C122.207 102.713 122.455 102.868 122.66 103.082C122.87 103.296 123.029 103.574 123.139 103.916C123.248 104.253 123.303 104.666 123.303 105.153V110H122.031V105.14C122.031 104.752 121.974 104.442 121.86 104.21C121.746 103.973 121.58 103.802 121.361 103.697C121.143 103.588 120.874 103.533 120.555 103.533C120.24 103.533 119.953 103.599 119.693 103.731C119.438 103.864 119.217 104.046 119.03 104.278C118.848 104.511 118.704 104.777 118.6 105.078C118.499 105.374 118.449 105.689 118.449 106.021ZM128.266 110.137C127.751 110.137 127.284 110.05 126.864 109.877C126.45 109.699 126.092 109.451 125.791 109.132C125.495 108.813 125.267 108.435 125.107 107.997C124.948 107.56 124.868 107.081 124.868 106.562V106.274C124.868 105.673 124.957 105.137 125.135 104.668C125.312 104.194 125.554 103.793 125.859 103.465C126.165 103.137 126.511 102.888 126.898 102.72C127.286 102.551 127.687 102.467 128.102 102.467C128.63 102.467 129.086 102.558 129.469 102.74C129.856 102.923 130.173 103.178 130.419 103.506C130.665 103.829 130.847 104.212 130.966 104.654C131.084 105.092 131.144 105.57 131.144 106.09V106.657H125.62V105.625H129.879V105.529C129.861 105.201 129.792 104.882 129.674 104.572C129.56 104.262 129.378 104.007 129.127 103.807C128.876 103.606 128.535 103.506 128.102 103.506C127.814 103.506 127.55 103.567 127.309 103.69C127.067 103.809 126.86 103.987 126.687 104.224C126.513 104.461 126.379 104.75 126.283 105.092C126.188 105.434 126.14 105.828 126.14 106.274V106.562C126.14 106.912 126.188 107.243 126.283 107.553C126.383 107.858 126.527 108.127 126.714 108.359C126.905 108.592 127.135 108.774 127.404 108.906C127.678 109.038 127.988 109.104 128.334 109.104C128.781 109.104 129.159 109.013 129.469 108.831C129.779 108.649 130.05 108.405 130.282 108.1L131.048 108.708C130.888 108.95 130.686 109.18 130.439 109.398C130.193 109.617 129.89 109.795 129.53 109.932C129.175 110.068 128.753 110.137 128.266 110.137ZM141.979 100.047H143.291V106.78C143.291 107.528 143.125 108.15 142.792 108.646C142.459 109.143 142.017 109.517 141.466 109.768C140.919 110.014 140.324 110.137 139.682 110.137C139.007 110.137 138.396 110.014 137.85 109.768C137.307 109.517 136.877 109.143 136.558 108.646C136.243 108.15 136.086 107.528 136.086 106.78V100.047H137.392V106.78C137.392 107.3 137.487 107.728 137.679 108.065C137.87 108.403 138.137 108.653 138.479 108.817C138.825 108.981 139.226 109.063 139.682 109.063C140.142 109.063 140.543 108.981 140.885 108.817C141.231 108.653 141.5 108.403 141.691 108.065C141.883 107.728 141.979 107.3 141.979 106.78V100.047ZM150.667 107.484C150.667 107.252 150.631 107.047 150.558 106.869C150.489 106.687 150.366 106.523 150.188 106.377C150.015 106.231 149.774 106.092 149.464 105.96C149.159 105.828 148.771 105.693 148.302 105.557C147.81 105.411 147.365 105.249 146.969 105.071C146.572 104.889 146.233 104.682 145.95 104.449C145.668 104.217 145.451 103.95 145.301 103.649C145.15 103.349 145.075 103.005 145.075 102.617C145.075 102.23 145.155 101.872 145.314 101.544C145.474 101.216 145.702 100.931 145.998 100.689C146.299 100.443 146.657 100.252 147.071 100.115C147.486 99.9785 147.949 99.9102 148.459 99.9102C149.206 99.9102 149.84 100.054 150.359 100.341C150.883 100.623 151.282 100.995 151.556 101.455C151.829 101.911 151.966 102.398 151.966 102.918H150.653C150.653 102.544 150.574 102.214 150.414 101.927C150.255 101.635 150.013 101.407 149.689 101.243C149.366 101.075 148.956 100.99 148.459 100.99C147.99 100.99 147.602 101.061 147.297 101.202C146.992 101.343 146.764 101.535 146.613 101.776C146.467 102.018 146.395 102.294 146.395 102.604C146.395 102.813 146.438 103.005 146.524 103.178C146.616 103.346 146.755 103.504 146.941 103.649C147.133 103.795 147.374 103.93 147.666 104.053C147.962 104.176 148.315 104.294 148.726 104.408C149.291 104.568 149.778 104.745 150.188 104.941C150.599 105.137 150.936 105.358 151.2 105.604C151.469 105.846 151.667 106.122 151.795 106.432C151.927 106.737 151.993 107.083 151.993 107.471C151.993 107.876 151.911 108.243 151.747 108.571C151.583 108.899 151.348 109.18 151.043 109.412C150.738 109.645 150.371 109.825 149.942 109.952C149.519 110.075 149.045 110.137 148.521 110.137C148.06 110.137 147.607 110.073 147.16 109.945C146.718 109.818 146.315 109.626 145.95 109.371C145.59 109.116 145.301 108.801 145.082 108.428C144.868 108.049 144.761 107.612 144.761 107.115H146.073C146.073 107.457 146.139 107.751 146.271 107.997C146.404 108.239 146.584 108.439 146.812 108.599C147.044 108.758 147.306 108.877 147.598 108.954C147.894 109.027 148.201 109.063 148.521 109.063C148.981 109.063 149.37 109 149.689 108.872C150.008 108.744 150.25 108.562 150.414 108.325C150.583 108.088 150.667 107.808 150.667 107.484ZM157.359 100.929L154.064 110H152.718L156.512 100.047H157.38L157.359 100.929ZM160.121 110L156.819 100.929L156.799 100.047H157.667L161.475 110H160.121ZM159.95 106.315V107.396H154.358V106.315H159.95Z" fill="white"/>
</svg>
