<svg width="540" height="212" viewBox="0 0 540 212" fill="none" xmlns="http://www.w3.org/2000/svg">
<rect width="540" height="212" fill="#F13C6E"/>
<g clip-path="url(#clip0_1_130)">
<path d="M477.909 52.7287H372.12C362.676 52.7287 355 60.4051 355 69.8485V142.151C355 151.595 362.676 159.271 372.12 159.271H477.88C487.324 159.271 495 151.595 495 142.151V69.8775C495.029 60.4341 487.353 52.7287 477.909 52.7287ZM487.208 142.151C487.208 147.279 483.036 151.45 477.909 151.45H372.12C366.993 151.45 362.821 147.279 362.821 142.151V69.8775C362.821 64.7503 366.993 60.5789 372.12 60.5789H477.88C483.007 60.5789 487.179 64.7503 487.179 69.8775V142.151H487.208Z" fill="white" fill-opacity="0.4"/>
<path d="M443.293 105.102L477.533 74.3965C479.126 72.9481 479.271 70.4859 477.822 68.8637C476.374 67.2705 473.912 67.1256 472.289 68.574L425.072 110.953L415.861 102.727C415.832 102.698 415.803 102.669 415.803 102.64C415.6 102.437 415.397 102.263 415.166 102.089L377.682 68.545C376.059 67.0967 373.597 67.2415 372.149 68.8637C370.7 70.4859 370.845 72.9481 372.467 74.3965L407.113 105.363L372.612 137.662C371.048 139.139 370.961 141.601 372.438 143.194C373.221 144.005 374.263 144.44 375.306 144.44C376.262 144.44 377.218 144.092 377.971 143.397L412.993 110.635L422.494 119.122C423.247 119.789 424.174 120.107 425.101 120.107C426.028 120.107 426.984 119.76 427.708 119.093L437.471 110.345L472.289 143.426C473.043 144.15 474.028 144.498 474.983 144.498C476.026 144.498 477.04 144.092 477.822 143.281C479.3 141.717 479.242 139.226 477.677 137.748L443.293 105.102Z" fill="white" fill-opacity="0.4"/>
</g>
<rect x="40" y="142" width="225" height="35" rx="17.5" fill="white"/>
<path d="M72.4785 162.927V164H67.208V162.927H72.4785ZM67.4746 154.047V164H66.1553V154.047H67.4746ZM71.7812 158.326V159.399H67.208V158.326H71.7812ZM72.4102 154.047V155.127H67.208V154.047H72.4102ZM75.1855 158.183V164H73.9209V156.604H75.1172L75.1855 158.183ZM74.8848 160.021L74.3584 160.001C74.363 159.495 74.4382 159.028 74.584 158.6C74.7298 158.167 74.9349 157.791 75.1992 157.472C75.4635 157.153 75.778 156.907 76.1426 156.733C76.5117 156.556 76.9196 156.467 77.3662 156.467C77.7308 156.467 78.0589 156.517 78.3506 156.617C78.6423 156.713 78.8906 156.868 79.0957 157.082C79.3053 157.296 79.4648 157.574 79.5742 157.916C79.6836 158.253 79.7383 158.666 79.7383 159.153V164H78.4668V159.14C78.4668 158.752 78.4098 158.442 78.2959 158.21C78.182 157.973 78.0156 157.802 77.7969 157.697C77.5781 157.588 77.3092 157.533 76.9902 157.533C76.6758 157.533 76.3887 157.599 76.1289 157.731C75.8737 157.864 75.6527 158.046 75.4658 158.278C75.2835 158.511 75.14 158.777 75.0352 159.078C74.9349 159.374 74.8848 159.689 74.8848 160.021ZM84.7559 156.604V157.574H80.7568V156.604H84.7559ZM82.1104 154.806H83.375V162.168C83.375 162.419 83.4137 162.608 83.4912 162.735C83.5687 162.863 83.6689 162.947 83.792 162.988C83.915 163.029 84.0472 163.05 84.1885 163.05C84.2933 163.05 84.4027 163.041 84.5166 163.022C84.6351 163 84.724 162.981 84.7832 162.968L84.79 164C84.6898 164.032 84.5576 164.062 84.3936 164.089C84.234 164.121 84.0404 164.137 83.8125 164.137C83.5026 164.137 83.2178 164.075 82.958 163.952C82.6982 163.829 82.4909 163.624 82.3359 163.337C82.1855 163.045 82.1104 162.653 82.1104 162.161V154.806ZM89.3086 164.137C88.7936 164.137 88.3265 164.05 87.9072 163.877C87.4925 163.699 87.1348 163.451 86.834 163.132C86.5378 162.813 86.3099 162.435 86.1504 161.997C85.9909 161.56 85.9111 161.081 85.9111 160.562V160.274C85.9111 159.673 86 159.137 86.1777 158.668C86.3555 158.194 86.597 157.793 86.9023 157.465C87.2077 157.137 87.554 156.888 87.9414 156.72C88.3288 156.551 88.7298 156.467 89.1445 156.467C89.6732 156.467 90.1289 156.558 90.5117 156.74C90.8991 156.923 91.2158 157.178 91.4619 157.506C91.708 157.829 91.8903 158.212 92.0088 158.654C92.1273 159.092 92.1865 159.57 92.1865 160.09V160.657H86.6631V159.625H90.9219V159.529C90.9036 159.201 90.8353 158.882 90.7168 158.572C90.6029 158.262 90.4206 158.007 90.1699 157.807C89.9193 157.606 89.5775 157.506 89.1445 157.506C88.8574 157.506 88.5931 157.567 88.3516 157.69C88.11 157.809 87.9027 157.987 87.7295 158.224C87.5563 158.461 87.4219 158.75 87.3262 159.092C87.2305 159.434 87.1826 159.828 87.1826 160.274V160.562C87.1826 160.912 87.2305 161.243 87.3262 161.553C87.4264 161.858 87.57 162.127 87.7568 162.359C87.9482 162.592 88.1784 162.774 88.4473 162.906C88.7207 163.038 89.0306 163.104 89.377 163.104C89.8236 163.104 90.2018 163.013 90.5117 162.831C90.8216 162.649 91.0928 162.405 91.3252 162.1L92.0908 162.708C91.9313 162.95 91.7285 163.18 91.4824 163.398C91.2363 163.617 90.9333 163.795 90.5732 163.932C90.2178 164.068 89.7962 164.137 89.3086 164.137ZM94.9277 157.766V164H93.6631V156.604H94.8936L94.9277 157.766ZM97.2383 156.562L97.2314 157.738C97.1266 157.715 97.0264 157.702 96.9307 157.697C96.8395 157.688 96.7347 157.684 96.6162 157.684C96.3245 157.684 96.0671 157.729 95.8438 157.82C95.6204 157.911 95.4313 158.039 95.2764 158.203C95.1214 158.367 94.9984 158.563 94.9072 158.791C94.8206 159.014 94.7637 159.26 94.7363 159.529L94.3809 159.734C94.3809 159.288 94.4242 158.868 94.5107 158.477C94.6019 158.085 94.7409 157.738 94.9277 157.438C95.1146 157.132 95.3516 156.895 95.6387 156.727C95.9303 156.553 96.2767 156.467 96.6777 156.467C96.7689 156.467 96.8737 156.478 96.9922 156.501C97.1107 156.519 97.1927 156.54 97.2383 156.562ZM103.958 163.234L106.016 156.604H107.369L104.402 165.142C104.334 165.324 104.243 165.52 104.129 165.729C104.02 165.944 103.878 166.146 103.705 166.338C103.532 166.529 103.322 166.684 103.076 166.803C102.835 166.926 102.545 166.987 102.208 166.987C102.108 166.987 101.98 166.974 101.825 166.946C101.67 166.919 101.561 166.896 101.497 166.878L101.49 165.853C101.527 165.857 101.584 165.862 101.661 165.866C101.743 165.875 101.8 165.88 101.832 165.88C102.119 165.88 102.363 165.841 102.563 165.764C102.764 165.691 102.933 165.565 103.069 165.388C103.211 165.215 103.331 164.975 103.432 164.67L103.958 163.234ZM102.447 156.604L104.368 162.346L104.696 163.679L103.787 164.144L101.066 156.604H102.447ZM108.066 160.384V160.227C108.066 159.693 108.144 159.199 108.299 158.743C108.454 158.283 108.677 157.884 108.969 157.547C109.26 157.205 109.614 156.941 110.028 156.754C110.443 156.562 110.908 156.467 111.423 156.467C111.942 156.467 112.41 156.562 112.824 156.754C113.243 156.941 113.599 157.205 113.891 157.547C114.187 157.884 114.412 158.283 114.567 158.743C114.722 159.199 114.8 159.693 114.8 160.227V160.384C114.8 160.917 114.722 161.411 114.567 161.867C114.412 162.323 114.187 162.722 113.891 163.063C113.599 163.401 113.246 163.665 112.831 163.856C112.421 164.043 111.956 164.137 111.437 164.137C110.917 164.137 110.45 164.043 110.035 163.856C109.62 163.665 109.265 163.401 108.969 163.063C108.677 162.722 108.454 162.323 108.299 161.867C108.144 161.411 108.066 160.917 108.066 160.384ZM109.331 160.227V160.384C109.331 160.753 109.374 161.102 109.461 161.43C109.548 161.753 109.677 162.04 109.851 162.291C110.028 162.542 110.249 162.74 110.514 162.886C110.778 163.027 111.086 163.098 111.437 163.098C111.783 163.098 112.086 163.027 112.346 162.886C112.61 162.74 112.829 162.542 113.002 162.291C113.175 162.04 113.305 161.753 113.392 161.43C113.483 161.102 113.528 160.753 113.528 160.384V160.227C113.528 159.862 113.483 159.518 113.392 159.194C113.305 158.866 113.173 158.577 112.995 158.326C112.822 158.071 112.603 157.87 112.339 157.725C112.079 157.579 111.774 157.506 111.423 157.506C111.076 157.506 110.771 157.579 110.507 157.725C110.247 157.87 110.028 158.071 109.851 158.326C109.677 158.577 109.548 158.866 109.461 159.194C109.374 159.518 109.331 159.862 109.331 160.227ZM120.911 162.291V156.604H122.183V164H120.973L120.911 162.291ZM121.15 160.732L121.677 160.719C121.677 161.211 121.624 161.667 121.52 162.086C121.419 162.501 121.255 162.861 121.027 163.166C120.799 163.471 120.501 163.711 120.132 163.884C119.763 164.052 119.314 164.137 118.785 164.137C118.425 164.137 118.095 164.084 117.794 163.979C117.498 163.875 117.243 163.713 117.028 163.494C116.814 163.275 116.648 162.991 116.529 162.64C116.415 162.289 116.358 161.867 116.358 161.375V156.604H117.623V161.389C117.623 161.721 117.66 161.997 117.732 162.216C117.81 162.43 117.912 162.601 118.04 162.729C118.172 162.852 118.318 162.938 118.478 162.988C118.642 163.038 118.81 163.063 118.983 163.063C119.521 163.063 119.947 162.961 120.262 162.756C120.576 162.546 120.802 162.266 120.938 161.915C121.08 161.56 121.15 161.165 121.15 160.732ZM125.375 157.766V164H124.11V156.604H125.341L125.375 157.766ZM127.686 156.562L127.679 157.738C127.574 157.715 127.474 157.702 127.378 157.697C127.287 157.688 127.182 157.684 127.063 157.684C126.772 157.684 126.514 157.729 126.291 157.82C126.068 157.911 125.879 158.039 125.724 158.203C125.569 158.367 125.446 158.563 125.354 158.791C125.268 159.014 125.211 159.26 125.184 159.529L124.828 159.734C124.828 159.288 124.871 158.868 124.958 158.477C125.049 158.085 125.188 157.738 125.375 157.438C125.562 157.132 125.799 156.895 126.086 156.727C126.378 156.553 126.724 156.467 127.125 156.467C127.216 156.467 127.321 156.478 127.439 156.501C127.558 156.519 127.64 156.54 127.686 156.562ZM135.396 164.137C134.882 164.137 134.414 164.05 133.995 163.877C133.58 163.699 133.223 163.451 132.922 163.132C132.626 162.813 132.398 162.435 132.238 161.997C132.079 161.56 131.999 161.081 131.999 160.562V160.274C131.999 159.673 132.088 159.137 132.266 158.668C132.443 158.194 132.685 157.793 132.99 157.465C133.296 157.137 133.642 156.888 134.029 156.72C134.417 156.551 134.818 156.467 135.232 156.467C135.761 156.467 136.217 156.558 136.6 156.74C136.987 156.923 137.304 157.178 137.55 157.506C137.796 157.829 137.978 158.212 138.097 158.654C138.215 159.092 138.274 159.57 138.274 160.09V160.657H132.751V159.625H137.01V159.529C136.992 159.201 136.923 158.882 136.805 158.572C136.691 158.262 136.508 158.007 136.258 157.807C136.007 157.606 135.665 157.506 135.232 157.506C134.945 157.506 134.681 157.567 134.439 157.69C134.198 157.809 133.991 157.987 133.817 158.224C133.644 158.461 133.51 158.75 133.414 159.092C133.318 159.434 133.271 159.828 133.271 160.274V160.562C133.271 160.912 133.318 161.243 133.414 161.553C133.514 161.858 133.658 162.127 133.845 162.359C134.036 162.592 134.266 162.774 134.535 162.906C134.809 163.038 135.118 163.104 135.465 163.104C135.911 163.104 136.29 163.013 136.6 162.831C136.91 162.649 137.181 162.405 137.413 162.1L138.179 162.708C138.019 162.95 137.816 163.18 137.57 163.398C137.324 163.617 137.021 163.795 136.661 163.932C136.306 164.068 135.884 164.137 135.396 164.137ZM142.383 159.249V160.288H139.047V159.249H142.383ZM144.878 158.073V164H143.606V156.604H144.81L144.878 158.073ZM144.618 160.021L144.03 160.001C144.035 159.495 144.101 159.028 144.229 158.6C144.356 158.167 144.545 157.791 144.796 157.472C145.047 157.153 145.359 156.907 145.732 156.733C146.106 156.556 146.539 156.467 147.031 156.467C147.378 156.467 147.697 156.517 147.988 156.617C148.28 156.713 148.533 156.866 148.747 157.075C148.961 157.285 149.128 157.554 149.246 157.882C149.365 158.21 149.424 158.606 149.424 159.071V164H148.159V159.133C148.159 158.745 148.093 158.436 147.961 158.203C147.833 157.971 147.651 157.802 147.414 157.697C147.177 157.588 146.899 157.533 146.58 157.533C146.206 157.533 145.894 157.599 145.644 157.731C145.393 157.864 145.192 158.046 145.042 158.278C144.892 158.511 144.782 158.777 144.714 159.078C144.65 159.374 144.618 159.689 144.618 160.021ZM149.41 159.324L148.562 159.584C148.567 159.178 148.633 158.789 148.761 158.415C148.893 158.041 149.082 157.709 149.328 157.417C149.579 157.125 149.886 156.895 150.251 156.727C150.616 156.553 151.033 156.467 151.502 156.467C151.898 156.467 152.249 156.519 152.555 156.624C152.865 156.729 153.124 156.891 153.334 157.109C153.548 157.324 153.71 157.599 153.819 157.937C153.929 158.274 153.983 158.675 153.983 159.14V164H152.712V159.126C152.712 158.711 152.646 158.39 152.514 158.162C152.386 157.93 152.204 157.768 151.967 157.677C151.734 157.581 151.456 157.533 151.133 157.533C150.855 157.533 150.609 157.581 150.395 157.677C150.18 157.772 150 157.905 149.854 158.073C149.709 158.237 149.597 158.426 149.52 158.641C149.447 158.855 149.41 159.083 149.41 159.324ZM160.259 162.735V158.928C160.259 158.636 160.2 158.383 160.081 158.169C159.967 157.95 159.794 157.782 159.562 157.663C159.329 157.545 159.042 157.485 158.7 157.485C158.381 157.485 158.101 157.54 157.859 157.649C157.622 157.759 157.436 157.902 157.299 158.08C157.167 158.258 157.101 158.449 157.101 158.654H155.836C155.836 158.39 155.904 158.128 156.041 157.868C156.178 157.608 156.374 157.374 156.629 157.164C156.889 156.95 157.199 156.781 157.559 156.658C157.923 156.531 158.329 156.467 158.775 156.467C159.313 156.467 159.787 156.558 160.197 156.74C160.612 156.923 160.936 157.198 161.168 157.567C161.405 157.932 161.523 158.39 161.523 158.941V162.387C161.523 162.633 161.544 162.895 161.585 163.173C161.631 163.451 161.697 163.69 161.783 163.891V164H160.464C160.4 163.854 160.35 163.66 160.313 163.419C160.277 163.173 160.259 162.945 160.259 162.735ZM160.478 159.516L160.491 160.404H159.213C158.853 160.404 158.532 160.434 158.249 160.493C157.966 160.548 157.729 160.632 157.538 160.746C157.347 160.86 157.201 161.004 157.101 161.177C157 161.345 156.95 161.544 156.95 161.771C156.95 162.004 157.003 162.216 157.107 162.407C157.212 162.599 157.369 162.751 157.579 162.865C157.793 162.975 158.055 163.029 158.365 163.029C158.753 163.029 159.094 162.947 159.391 162.783C159.687 162.619 159.922 162.419 160.095 162.182C160.272 161.945 160.368 161.715 160.382 161.491L160.922 162.1C160.89 162.291 160.803 162.503 160.662 162.735C160.521 162.968 160.332 163.191 160.095 163.405C159.862 163.615 159.584 163.79 159.261 163.932C158.942 164.068 158.582 164.137 158.181 164.137C157.679 164.137 157.24 164.039 156.861 163.843C156.488 163.647 156.196 163.385 155.986 163.057C155.781 162.724 155.679 162.353 155.679 161.942C155.679 161.546 155.756 161.197 155.911 160.896C156.066 160.591 156.289 160.338 156.581 160.138C156.873 159.933 157.224 159.778 157.634 159.673C158.044 159.568 158.502 159.516 159.008 159.516H160.478ZM164.887 156.604V164H163.615V156.604H164.887ZM163.52 154.642C163.52 154.437 163.581 154.263 163.704 154.122C163.832 153.981 164.019 153.91 164.265 153.91C164.506 153.91 164.691 153.981 164.818 154.122C164.951 154.263 165.017 154.437 165.017 154.642C165.017 154.838 164.951 155.006 164.818 155.147C164.691 155.284 164.506 155.353 164.265 155.353C164.019 155.353 163.832 155.284 163.704 155.147C163.581 155.006 163.52 154.838 163.52 154.642ZM168.291 153.5V164H167.02V153.5H168.291Z" fill="#C4C4C4"/>
<path d="M51.2852 45.3115V50.3828C51.0859 50.623 50.7783 50.8838 50.3623 51.165C49.9463 51.4404 49.4102 51.6777 48.7539 51.877C48.0977 52.0762 47.3037 52.1758 46.3721 52.1758C45.5459 52.1758 44.793 52.041 44.1133 51.7715C43.4336 51.4961 42.8477 51.0947 42.3555 50.5674C41.8691 50.04 41.4941 49.3955 41.2305 48.6338C40.9668 47.8662 40.835 46.9902 40.835 46.0059V45.2061C40.835 44.2217 40.9609 43.3457 41.2129 42.5781C41.4707 41.8105 41.8369 41.1631 42.3115 40.6357C42.7861 40.1084 43.3516 39.707 44.0078 39.4316C44.6641 39.1562 45.3936 39.0186 46.1963 39.0186C47.3096 39.0186 48.2236 39.2002 48.9385 39.5635C49.6533 39.9209 50.1982 40.4189 50.5732 41.0576C50.9541 41.6904 51.1885 42.417 51.2764 43.2373H48.7188C48.6543 42.8037 48.5312 42.4258 48.3496 42.1035C48.168 41.7812 47.9072 41.5293 47.5674 41.3477C47.2334 41.166 46.7998 41.0752 46.2666 41.0752C45.8271 41.0752 45.4346 41.166 45.0889 41.3477C44.749 41.5234 44.4619 41.7842 44.2275 42.1299C43.9932 42.4756 43.8145 42.9033 43.6914 43.4131C43.5684 43.9229 43.5068 44.5146 43.5068 45.1885V46.0059C43.5068 46.6738 43.5713 47.2656 43.7002 47.7812C43.8291 48.291 44.0195 48.7217 44.2715 49.0732C44.5293 49.4189 44.8457 49.6797 45.2207 49.8555C45.5957 50.0312 46.0322 50.1191 46.5303 50.1191C46.9463 50.1191 47.292 50.084 47.5674 50.0137C47.8486 49.9434 48.0742 49.8584 48.2441 49.7588C48.4199 49.6533 48.5547 49.5537 48.6484 49.46V47.1924H46.2402V45.3115H51.2852ZM57.6309 52.1758C56.8926 52.1758 56.2305 52.0586 55.6445 51.8242C55.0586 51.584 54.5605 51.2529 54.1504 50.8311C53.7461 50.4092 53.4355 49.9199 53.2188 49.3633C53.002 48.8008 52.8936 48.2031 52.8936 47.5703V47.2188C52.8936 46.498 52.9961 45.8389 53.2012 45.2412C53.4062 44.6436 53.6992 44.125 54.0801 43.6855C54.4668 43.2461 54.9355 42.9092 55.4863 42.6748C56.0371 42.4346 56.6582 42.3145 57.3496 42.3145C58.0234 42.3145 58.6211 42.4258 59.1426 42.6484C59.6641 42.8711 60.1006 43.1875 60.4521 43.5977C60.8096 44.0078 61.0791 44.5 61.2607 45.0742C61.4424 45.6426 61.5332 46.2754 61.5332 46.9727V48.0273H53.9746V46.3398H59.0459V46.1465C59.0459 45.7949 58.9814 45.4814 58.8525 45.2061C58.7295 44.9248 58.542 44.7021 58.29 44.5381C58.0381 44.374 57.7158 44.292 57.3232 44.292C56.9893 44.292 56.7021 44.3652 56.4619 44.5117C56.2217 44.6582 56.0254 44.8633 55.873 45.127C55.7266 45.3906 55.6152 45.7012 55.5391 46.0586C55.4688 46.4102 55.4336 46.7969 55.4336 47.2188V47.5703C55.4336 47.9512 55.4863 48.3027 55.5918 48.625C55.7031 48.9473 55.8584 49.2256 56.0576 49.46C56.2627 49.6943 56.5088 49.876 56.7959 50.0049C57.0889 50.1338 57.4199 50.1982 57.7891 50.1982C58.2461 50.1982 58.6709 50.1104 59.0635 49.9346C59.4619 49.7529 59.8047 49.4805 60.0918 49.1172L61.3223 50.4531C61.123 50.7402 60.8506 51.0156 60.5049 51.2793C60.165 51.543 59.7549 51.7598 59.2744 51.9297C58.7939 52.0938 58.2461 52.1758 57.6309 52.1758ZM67.6328 42.4902V44.2832H62.0957V42.4902H67.6328ZM63.4668 40.1436H65.998V49.1348C65.998 49.4102 66.0332 49.6211 66.1035 49.7676C66.1797 49.9141 66.291 50.0166 66.4375 50.0752C66.584 50.1279 66.7686 50.1543 66.9912 50.1543C67.1494 50.1543 67.29 50.1484 67.4131 50.1367C67.542 50.1191 67.6504 50.1016 67.7383 50.084L67.7471 51.9473C67.5303 52.0176 67.2959 52.0732 67.0439 52.1143C66.792 52.1553 66.5137 52.1758 66.209 52.1758C65.6523 52.1758 65.166 52.085 64.75 51.9033C64.3398 51.7158 64.0234 51.417 63.8008 51.0068C63.5781 50.5967 63.4668 50.0576 63.4668 49.3896V40.1436ZM73.5566 38.5H76.0879V49.8203L75.833 52H73.5566V38.5ZM82.1084 47.1484V47.333C82.1084 48.042 82.0322 48.6924 81.8799 49.2842C81.7334 49.876 81.5049 50.3887 81.1943 50.8223C80.8838 51.25 80.4971 51.584 80.0342 51.8242C79.5771 52.0586 79.0381 52.1758 78.417 52.1758C77.8369 52.1758 77.333 52.0586 76.9053 51.8242C76.4834 51.5898 76.1289 51.2588 75.8418 50.8311C75.5547 50.4033 75.3232 49.9023 75.1475 49.3281C74.9717 48.7539 74.8398 48.127 74.752 47.4473V47.043C74.8398 46.3633 74.9717 45.7363 75.1475 45.1621C75.3232 44.5879 75.5547 44.0869 75.8418 43.6592C76.1289 43.2314 76.4834 42.9004 76.9053 42.666C77.3271 42.4316 77.8252 42.3145 78.3994 42.3145C79.0264 42.3145 79.5713 42.4346 80.0342 42.6748C80.5029 42.9092 80.8896 43.2432 81.1943 43.6768C81.5049 44.1045 81.7334 44.6143 81.8799 45.2061C82.0322 45.792 82.1084 46.4395 82.1084 47.1484ZM79.5771 47.333V47.1484C79.5771 46.7617 79.5479 46.3984 79.4893 46.0586C79.4365 45.7129 79.3428 45.4111 79.208 45.1533C79.0732 44.8896 78.8887 44.6816 78.6543 44.5293C78.4258 44.377 78.1299 44.3008 77.7666 44.3008C77.4209 44.3008 77.1279 44.3594 76.8877 44.4766C76.6475 44.5938 76.4482 44.7578 76.29 44.9688C76.1377 45.1797 76.0234 45.4316 75.9473 45.7246C75.8711 46.0117 75.8242 46.3281 75.8066 46.6738V47.8252C75.8242 48.2881 75.9004 48.6982 76.0352 49.0557C76.1758 49.4072 76.3867 49.6855 76.668 49.8906C76.9551 50.0898 77.3271 50.1895 77.7842 50.1895C78.1416 50.1895 78.4375 50.1191 78.6719 49.9785C78.9062 49.8379 79.0879 49.6387 79.2168 49.3809C79.3516 49.123 79.4453 48.8213 79.498 48.4756C79.5508 48.124 79.5771 47.7432 79.5771 47.333ZM83.2773 47.3418V47.1572C83.2773 46.46 83.377 45.8184 83.5762 45.2324C83.7754 44.6406 84.0654 44.1279 84.4463 43.6943C84.8271 43.2607 85.2959 42.9238 85.8525 42.6836C86.4092 42.4375 87.0479 42.3145 87.7686 42.3145C88.4893 42.3145 89.1309 42.4375 89.6934 42.6836C90.2559 42.9238 90.7275 43.2607 91.1084 43.6943C91.4951 44.1279 91.7881 44.6406 91.9873 45.2324C92.1865 45.8184 92.2861 46.46 92.2861 47.1572V47.3418C92.2861 48.0332 92.1865 48.6748 91.9873 49.2666C91.7881 49.8525 91.4951 50.3652 91.1084 50.8047C90.7275 51.2383 90.2588 51.5752 89.7021 51.8154C89.1455 52.0557 88.5068 52.1758 87.7861 52.1758C87.0654 52.1758 86.4238 52.0557 85.8613 51.8154C85.3047 51.5752 84.833 51.2383 84.4463 50.8047C84.0654 50.3652 83.7754 49.8525 83.5762 49.2666C83.377 48.6748 83.2773 48.0332 83.2773 47.3418ZM85.8086 47.1572V47.3418C85.8086 47.7402 85.8438 48.1123 85.9141 48.458C85.9844 48.8037 86.0957 49.1084 86.248 49.3721C86.4062 49.6299 86.6113 49.832 86.8633 49.9785C87.1152 50.125 87.4229 50.1982 87.7861 50.1982C88.1377 50.1982 88.4395 50.125 88.6914 49.9785C88.9434 49.832 89.1455 49.6299 89.2979 49.3721C89.4502 49.1084 89.5615 48.8037 89.6318 48.458C89.708 48.1123 89.7461 47.7402 89.7461 47.3418V47.1572C89.7461 46.7705 89.708 46.4072 89.6318 46.0674C89.5615 45.7217 89.4473 45.417 89.2891 45.1533C89.1367 44.8838 88.9346 44.6729 88.6826 44.5205C88.4307 44.3682 88.126 44.292 87.7686 44.292C87.4111 44.292 87.1064 44.3682 86.8545 44.5205C86.6084 44.6729 86.4062 44.8838 86.248 45.1533C86.0957 45.417 85.9844 45.7217 85.9141 46.0674C85.8438 46.4072 85.8086 46.7705 85.8086 47.1572ZM96.3203 44.5205V52H93.7891V42.4902H96.1621L96.3203 44.5205ZM95.9512 46.9111H95.2656C95.2656 46.208 95.3564 45.5752 95.5381 45.0127C95.7197 44.4443 95.9746 43.9609 96.3027 43.5625C96.6309 43.1582 97.0205 42.8506 97.4717 42.6396C97.9287 42.4229 98.4385 42.3145 99.001 42.3145C99.4463 42.3145 99.8535 42.3789 100.223 42.5078C100.592 42.6367 100.908 42.8418 101.172 43.123C101.441 43.4043 101.646 43.7764 101.787 44.2393C101.934 44.7021 102.007 45.2676 102.007 45.9355V52H99.458V45.9268C99.458 45.5049 99.3994 45.1768 99.2822 44.9424C99.165 44.708 98.9922 44.5439 98.7637 44.4502C98.541 44.3506 98.2656 44.3008 97.9375 44.3008C97.5977 44.3008 97.3018 44.3682 97.0498 44.5029C96.8037 44.6377 96.5986 44.8252 96.4346 45.0654C96.2764 45.2998 96.1562 45.5752 96.0742 45.8916C95.9922 46.208 95.9512 46.5479 95.9512 46.9111ZM109.557 49.7236V42.4902H112.088V52H109.706L109.557 49.7236ZM109.838 47.7725L110.585 47.7549C110.585 48.3877 110.512 48.9766 110.365 49.5215C110.219 50.0605 109.999 50.5293 109.706 50.9277C109.413 51.3203 109.044 51.6279 108.599 51.8506C108.153 52.0674 107.629 52.1758 107.025 52.1758C106.562 52.1758 106.135 52.1113 105.742 51.9824C105.355 51.8477 105.021 51.6396 104.74 51.3584C104.465 51.0713 104.248 50.7051 104.09 50.2598C103.938 49.8086 103.861 49.2666 103.861 48.6338V42.4902H106.393V48.6514C106.393 48.9326 106.425 49.1699 106.489 49.3633C106.56 49.5566 106.656 49.7148 106.779 49.8379C106.902 49.9609 107.046 50.0488 107.21 50.1016C107.38 50.1543 107.567 50.1807 107.772 50.1807C108.294 50.1807 108.704 50.0752 109.003 49.8643C109.308 49.6533 109.521 49.3662 109.645 49.0029C109.773 48.6338 109.838 48.2236 109.838 47.7725ZM119.163 49.3721C119.163 49.1904 119.11 49.0264 119.005 48.8799C118.899 48.7334 118.703 48.5986 118.416 48.4756C118.135 48.3467 117.728 48.2295 117.194 48.124C116.714 48.0186 116.266 47.8867 115.85 47.7285C115.439 47.5645 115.082 47.3682 114.777 47.1396C114.479 46.9111 114.244 46.6416 114.074 46.3311C113.904 46.0146 113.819 45.6543 113.819 45.25C113.819 44.8516 113.904 44.4766 114.074 44.125C114.25 43.7734 114.499 43.4629 114.821 43.1934C115.149 42.918 115.548 42.7041 116.017 42.5518C116.491 42.3936 117.024 42.3145 117.616 42.3145C118.442 42.3145 119.151 42.4463 119.743 42.71C120.341 42.9736 120.798 43.3369 121.114 43.7998C121.437 44.2568 121.598 44.7783 121.598 45.3643H119.066C119.066 45.1182 119.014 44.8984 118.908 44.7051C118.809 44.5059 118.65 44.3506 118.434 44.2393C118.223 44.1221 117.947 44.0635 117.607 44.0635C117.326 44.0635 117.083 44.1133 116.878 44.2129C116.673 44.3066 116.515 44.4355 116.403 44.5996C116.298 44.7578 116.245 44.9336 116.245 45.127C116.245 45.2734 116.274 45.4053 116.333 45.5225C116.397 45.6338 116.5 45.7363 116.641 45.8301C116.781 45.9238 116.963 46.0117 117.186 46.0938C117.414 46.1699 117.695 46.2402 118.029 46.3047C118.715 46.4453 119.327 46.6299 119.866 46.8584C120.405 47.0811 120.833 47.3857 121.149 47.7725C121.466 48.1533 121.624 48.6543 121.624 49.2754C121.624 49.6973 121.53 50.084 121.343 50.4355C121.155 50.7871 120.886 51.0947 120.534 51.3584C120.183 51.6162 119.761 51.8184 119.269 51.9648C118.782 52.1055 118.234 52.1758 117.625 52.1758C116.74 52.1758 115.99 52.0176 115.375 51.7012C114.766 51.3848 114.303 50.9834 113.986 50.4971C113.676 50.0049 113.521 49.501 113.521 48.9854H115.92C115.932 49.3311 116.02 49.6094 116.184 49.8203C116.354 50.0312 116.567 50.1836 116.825 50.2773C117.089 50.3711 117.373 50.418 117.678 50.418C118.006 50.418 118.278 50.374 118.495 50.2861C118.712 50.1924 118.876 50.0693 118.987 49.917C119.104 49.7588 119.163 49.5771 119.163 49.3721ZM127.645 52.1758C126.906 52.1758 126.244 52.0586 125.658 51.8242C125.072 51.584 124.574 51.2529 124.164 50.8311C123.76 50.4092 123.449 49.9199 123.232 49.3633C123.016 48.8008 122.907 48.2031 122.907 47.5703V47.2188C122.907 46.498 123.01 45.8389 123.215 45.2412C123.42 44.6436 123.713 44.125 124.094 43.6855C124.48 43.2461 124.949 42.9092 125.5 42.6748C126.051 42.4346 126.672 42.3145 127.363 42.3145C128.037 42.3145 128.635 42.4258 129.156 42.6484C129.678 42.8711 130.114 43.1875 130.466 43.5977C130.823 44.0078 131.093 44.5 131.274 45.0742C131.456 45.6426 131.547 46.2754 131.547 46.9727V48.0273H123.988V46.3398H129.06V46.1465C129.06 45.7949 128.995 45.4814 128.866 45.2061C128.743 44.9248 128.556 44.7021 128.304 44.5381C128.052 44.374 127.729 44.292 127.337 44.292C127.003 44.292 126.716 44.3652 126.476 44.5117C126.235 44.6582 126.039 44.8633 125.887 45.127C125.74 45.3906 125.629 45.7012 125.553 46.0586C125.482 46.4102 125.447 46.7969 125.447 47.2188V47.5703C125.447 47.9512 125.5 48.3027 125.605 48.625C125.717 48.9473 125.872 49.2256 126.071 49.46C126.276 49.6943 126.522 49.876 126.81 50.0049C127.103 50.1338 127.434 50.1982 127.803 50.1982C128.26 50.1982 128.685 50.1104 129.077 49.9346C129.476 49.7529 129.818 49.4805 130.105 49.1172L131.336 50.4531C131.137 50.7402 130.864 51.0156 130.519 51.2793C130.179 51.543 129.769 51.7598 129.288 51.9297C128.808 52.0938 128.26 52.1758 127.645 52.1758ZM138.13 49.3721C138.13 49.1904 138.077 49.0264 137.972 48.8799C137.866 48.7334 137.67 48.5986 137.383 48.4756C137.102 48.3467 136.694 48.2295 136.161 48.124C135.681 48.0186 135.232 47.8867 134.816 47.7285C134.406 47.5645 134.049 47.3682 133.744 47.1396C133.445 46.9111 133.211 46.6416 133.041 46.3311C132.871 46.0146 132.786 45.6543 132.786 45.25C132.786 44.8516 132.871 44.4766 133.041 44.125C133.217 43.7734 133.466 43.4629 133.788 43.1934C134.116 42.918 134.515 42.7041 134.983 42.5518C135.458 42.3936 135.991 42.3145 136.583 42.3145C137.409 42.3145 138.118 42.4463 138.71 42.71C139.308 42.9736 139.765 43.3369 140.081 43.7998C140.403 44.2568 140.564 44.7783 140.564 45.3643H138.033C138.033 45.1182 137.98 44.8984 137.875 44.7051C137.775 44.5059 137.617 44.3506 137.4 44.2393C137.189 44.1221 136.914 44.0635 136.574 44.0635C136.293 44.0635 136.05 44.1133 135.845 44.2129C135.64 44.3066 135.481 44.4355 135.37 44.5996C135.265 44.7578 135.212 44.9336 135.212 45.127C135.212 45.2734 135.241 45.4053 135.3 45.5225C135.364 45.6338 135.467 45.7363 135.607 45.8301C135.748 45.9238 135.93 46.0117 136.152 46.0938C136.381 46.1699 136.662 46.2402 136.996 46.3047C137.682 46.4453 138.294 46.6299 138.833 46.8584C139.372 47.0811 139.8 47.3857 140.116 47.7725C140.433 48.1533 140.591 48.6543 140.591 49.2754C140.591 49.6973 140.497 50.084 140.31 50.4355C140.122 50.7871 139.853 51.0947 139.501 51.3584C139.149 51.6162 138.728 51.8184 138.235 51.9648C137.749 52.1055 137.201 52.1758 136.592 52.1758C135.707 52.1758 134.957 52.0176 134.342 51.7012C133.732 51.3848 133.27 50.9834 132.953 50.4971C132.643 50.0049 132.487 49.501 132.487 48.9854H134.887C134.898 49.3311 134.986 49.6094 135.15 49.8203C135.32 50.0312 135.534 50.1836 135.792 50.2773C136.056 50.3711 136.34 50.418 136.645 50.418C136.973 50.418 137.245 50.374 137.462 50.2861C137.679 50.1924 137.843 50.0693 137.954 49.917C138.071 49.7588 138.13 49.5771 138.13 49.3721ZM151.85 49.8555V45.6191C151.85 45.3145 151.8 45.0537 151.7 44.8369C151.601 44.6143 151.445 44.4414 151.234 44.3184C151.029 44.1953 150.763 44.1338 150.435 44.1338C150.153 44.1338 149.91 44.1836 149.705 44.2832C149.5 44.377 149.342 44.5146 149.23 44.6963C149.119 44.8721 149.063 45.0801 149.063 45.3203H146.532C146.532 44.916 146.626 44.5322 146.813 44.1689C147.001 43.8057 147.273 43.4863 147.631 43.2109C147.988 42.9297 148.413 42.71 148.905 42.5518C149.403 42.3936 149.96 42.3145 150.575 42.3145C151.313 42.3145 151.97 42.4375 152.544 42.6836C153.118 42.9297 153.569 43.2988 153.897 43.791C154.231 44.2832 154.398 44.8984 154.398 45.6367V49.7061C154.398 50.2275 154.431 50.6553 154.495 50.9893C154.56 51.3174 154.653 51.6045 154.776 51.8506V52H152.219C152.096 51.7422 152.002 51.4199 151.938 51.0332C151.879 50.6406 151.85 50.248 151.85 49.8555ZM152.184 46.208L152.201 47.6406H150.786C150.452 47.6406 150.162 47.6787 149.916 47.7549C149.67 47.8311 149.468 47.9395 149.31 48.0801C149.151 48.2148 149.034 48.373 148.958 48.5547C148.888 48.7363 148.853 48.9355 148.853 49.1523C148.853 49.3691 148.902 49.5654 149.002 49.7412C149.102 49.9111 149.245 50.0459 149.433 50.1455C149.62 50.2393 149.84 50.2861 150.092 50.2861C150.473 50.2861 150.804 50.21 151.085 50.0576C151.366 49.9053 151.583 49.7178 151.735 49.4951C151.894 49.2725 151.976 49.0615 151.981 48.8623L152.649 49.9346C152.556 50.1748 152.427 50.4238 152.263 50.6816C152.104 50.9395 151.902 51.1826 151.656 51.4111C151.41 51.6338 151.114 51.8184 150.769 51.9648C150.423 52.1055 150.013 52.1758 149.538 52.1758C148.935 52.1758 148.387 52.0557 147.895 51.8154C147.408 51.5693 147.021 51.2324 146.734 50.8047C146.453 50.3711 146.312 49.8789 146.312 49.3281C146.312 48.8301 146.406 48.3877 146.594 48.001C146.781 47.6143 147.057 47.2891 147.42 47.0254C147.789 46.7559 148.249 46.5537 148.8 46.4189C149.351 46.2783 149.989 46.208 150.716 46.208H152.184ZM158.828 44.5205V52H156.297V42.4902H158.67L158.828 44.5205ZM158.459 46.9111H157.773C157.773 46.208 157.864 45.5752 158.046 45.0127C158.228 44.4443 158.482 43.9609 158.811 43.5625C159.139 43.1582 159.528 42.8506 159.979 42.6396C160.437 42.4229 160.946 42.3145 161.509 42.3145C161.954 42.3145 162.361 42.3789 162.73 42.5078C163.1 42.6367 163.416 42.8418 163.68 43.123C163.949 43.4043 164.154 43.7764 164.295 44.2393C164.441 44.7021 164.515 45.2676 164.515 45.9355V52H161.966V45.9268C161.966 45.5049 161.907 45.1768 161.79 44.9424C161.673 44.708 161.5 44.5439 161.271 44.4502C161.049 44.3506 160.773 44.3008 160.445 44.3008C160.105 44.3008 159.81 44.3682 159.558 44.5029C159.312 44.6377 159.106 44.8252 158.942 45.0654C158.784 45.2998 158.664 45.5752 158.582 45.8916C158.5 46.208 158.459 46.5479 158.459 46.9111ZM172.056 49.9258V38.5H174.604V52H172.311L172.056 49.9258ZM166.044 47.3594V47.1748C166.044 46.4482 166.126 45.7891 166.29 45.1973C166.454 44.5996 166.694 44.0869 167.011 43.6592C167.327 43.2314 167.717 42.9004 168.18 42.666C168.643 42.4316 169.17 42.3145 169.762 42.3145C170.318 42.3145 170.805 42.4316 171.221 42.666C171.643 42.9004 172 43.2344 172.293 43.668C172.592 44.0957 172.832 44.6025 173.014 45.1885C173.195 45.7686 173.327 46.4043 173.409 47.0957V47.5C173.327 48.1621 173.195 48.7773 173.014 49.3457C172.832 49.9141 172.592 50.4121 172.293 50.8398C172 51.2617 171.643 51.5898 171.221 51.8242C170.799 52.0586 170.307 52.1758 169.744 52.1758C169.152 52.1758 168.625 52.0557 168.162 51.8154C167.705 51.5752 167.318 51.2383 167.002 50.8047C166.691 50.3711 166.454 49.8613 166.29 49.2754C166.126 48.6895 166.044 48.0508 166.044 47.3594ZM168.575 47.1748V47.3594C168.575 47.752 168.604 48.1182 168.663 48.458C168.728 48.7979 168.83 49.0996 168.971 49.3633C169.117 49.6211 169.305 49.8232 169.533 49.9697C169.768 50.1104 170.052 50.1807 170.386 50.1807C170.819 50.1807 171.177 50.084 171.458 49.8906C171.739 49.6914 171.953 49.4189 172.1 49.0732C172.252 48.7275 172.34 48.3291 172.363 47.8779V46.7266C172.346 46.3574 172.293 46.0264 172.205 45.7334C172.123 45.4346 172 45.1797 171.836 44.9688C171.678 44.7578 171.479 44.5938 171.238 44.4766C171.004 44.3594 170.726 44.3008 170.403 44.3008C170.075 44.3008 169.794 44.377 169.56 44.5293C169.325 44.6758 169.135 44.8779 168.988 45.1357C168.848 45.3936 168.742 45.6982 168.672 46.0498C168.607 46.3955 168.575 46.7705 168.575 47.1748ZM187.085 42.4902H189.379V51.6836C189.379 52.5508 189.186 53.2861 188.799 53.8896C188.418 54.499 187.885 54.959 187.199 55.2695C186.514 55.5859 185.717 55.7441 184.809 55.7441C184.41 55.7441 183.988 55.6914 183.543 55.5859C183.104 55.4805 182.682 55.3164 182.277 55.0938C181.879 54.8711 181.545 54.5898 181.275 54.25L182.392 52.7559C182.685 53.0957 183.024 53.3594 183.411 53.5469C183.798 53.7402 184.226 53.8369 184.694 53.8369C185.151 53.8369 185.538 53.752 185.854 53.582C186.171 53.418 186.414 53.1748 186.584 52.8525C186.754 52.5361 186.839 52.1523 186.839 51.7012V44.6875L187.085 42.4902ZM180.687 47.3594V47.1748C180.687 46.4482 180.774 45.7891 180.95 45.1973C181.132 44.5996 181.387 44.0869 181.715 43.6592C182.049 43.2314 182.453 42.9004 182.928 42.666C183.402 42.4316 183.938 42.3145 184.536 42.3145C185.169 42.3145 185.699 42.4316 186.127 42.666C186.555 42.9004 186.906 43.2344 187.182 43.668C187.457 44.0957 187.671 44.6025 187.823 45.1885C187.981 45.7686 188.104 46.4043 188.192 47.0957V47.5C188.104 48.1621 187.973 48.7773 187.797 49.3457C187.621 49.9141 187.39 50.4121 187.103 50.8398C186.815 51.2617 186.458 51.5898 186.03 51.8242C185.608 52.0586 185.104 52.1758 184.519 52.1758C183.933 52.1758 183.402 52.0557 182.928 51.8154C182.459 51.5752 182.058 51.2383 181.724 50.8047C181.39 50.3711 181.132 49.8613 180.95 49.2754C180.774 48.6895 180.687 48.0508 180.687 47.3594ZM183.218 47.1748V47.3594C183.218 47.752 183.256 48.1182 183.332 48.458C183.408 48.7979 183.525 49.0996 183.684 49.3633C183.848 49.6211 184.05 49.8232 184.29 49.9697C184.536 50.1104 184.826 50.1807 185.16 50.1807C185.623 50.1807 186.001 50.084 186.294 49.8906C186.587 49.6914 186.807 49.4189 186.953 49.0732C187.1 48.7275 187.185 48.3291 187.208 47.8779V46.7266C187.196 46.3574 187.146 46.0264 187.059 45.7334C186.971 45.4346 186.848 45.1797 186.689 44.9688C186.531 44.7578 186.326 44.5938 186.074 44.4766C185.822 44.3594 185.523 44.3008 185.178 44.3008C184.844 44.3008 184.554 44.377 184.308 44.5293C184.067 44.6758 183.865 44.8779 183.701 45.1357C183.543 45.3936 183.423 45.6982 183.341 46.0498C183.259 46.3955 183.218 46.7705 183.218 47.1748ZM194.02 42.4902V52H191.479V42.4902H194.02ZM191.321 40.0117C191.321 39.6426 191.45 39.3379 191.708 39.0977C191.966 38.8574 192.312 38.7373 192.745 38.7373C193.173 38.7373 193.516 38.8574 193.773 39.0977C194.037 39.3379 194.169 39.6426 194.169 40.0117C194.169 40.3809 194.037 40.6855 193.773 40.9258C193.516 41.166 193.173 41.2861 192.745 41.2861C192.312 41.2861 191.966 41.166 191.708 40.9258C191.45 40.6855 191.321 40.3809 191.321 40.0117ZM199.337 52H196.788V41.6465C196.788 40.9258 196.929 40.3193 197.21 39.8271C197.497 39.3291 197.898 38.9541 198.414 38.7021C198.936 38.4443 199.554 38.3154 200.269 38.3154C200.503 38.3154 200.729 38.333 200.945 38.3682C201.162 38.3975 201.373 38.4355 201.578 38.4824L201.552 40.3896C201.44 40.3604 201.323 40.3398 201.2 40.3281C201.077 40.3164 200.934 40.3105 200.77 40.3105C200.465 40.3105 200.204 40.3633 199.987 40.4688C199.776 40.5684 199.615 40.7178 199.504 40.917C199.393 41.1162 199.337 41.3594 199.337 41.6465V52ZM201.235 42.4902V44.2832H195.373V42.4902H201.235ZM207.221 42.4902V44.2832H201.684V42.4902H207.221ZM203.055 40.1436H205.586V49.1348C205.586 49.4102 205.621 49.6211 205.691 49.7676C205.768 49.9141 205.879 50.0166 206.025 50.0752C206.172 50.1279 206.356 50.1543 206.579 50.1543C206.737 50.1543 206.878 50.1484 207.001 50.1367C207.13 50.1191 207.238 50.1016 207.326 50.084L207.335 51.9473C207.118 52.0176 206.884 52.0732 206.632 52.1143C206.38 52.1553 206.102 52.1758 205.797 52.1758C205.24 52.1758 204.754 52.085 204.338 51.9033C203.928 51.7158 203.611 51.417 203.389 51.0068C203.166 50.5967 203.055 50.0576 203.055 49.3896V40.1436ZM213.804 49.3721C213.804 49.1904 213.751 49.0264 213.646 48.8799C213.54 48.7334 213.344 48.5986 213.057 48.4756C212.775 48.3467 212.368 48.2295 211.835 48.124C211.354 48.0186 210.906 47.8867 210.49 47.7285C210.08 47.5645 209.723 47.3682 209.418 47.1396C209.119 46.9111 208.885 46.6416 208.715 46.3311C208.545 46.0146 208.46 45.6543 208.46 45.25C208.46 44.8516 208.545 44.4766 208.715 44.125C208.891 43.7734 209.14 43.4629 209.462 43.1934C209.79 42.918 210.188 42.7041 210.657 42.5518C211.132 42.3936 211.665 42.3145 212.257 42.3145C213.083 42.3145 213.792 42.4463 214.384 42.71C214.981 42.9736 215.438 43.3369 215.755 43.7998C216.077 44.2568 216.238 44.7783 216.238 45.3643H213.707C213.707 45.1182 213.654 44.8984 213.549 44.7051C213.449 44.5059 213.291 44.3506 213.074 44.2393C212.863 44.1221 212.588 44.0635 212.248 44.0635C211.967 44.0635 211.724 44.1133 211.519 44.2129C211.313 44.3066 211.155 44.4355 211.044 44.5996C210.938 44.7578 210.886 44.9336 210.886 45.127C210.886 45.2734 210.915 45.4053 210.974 45.5225C211.038 45.6338 211.141 45.7363 211.281 45.8301C211.422 45.9238 211.604 46.0117 211.826 46.0938C212.055 46.1699 212.336 46.2402 212.67 46.3047C213.355 46.4453 213.968 46.6299 214.507 46.8584C215.046 47.0811 215.474 47.3857 215.79 47.7725C216.106 48.1533 216.265 48.6543 216.265 49.2754C216.265 49.6973 216.171 50.084 215.983 50.4355C215.796 50.7871 215.526 51.0947 215.175 51.3584C214.823 51.6162 214.401 51.8184 213.909 51.9648C213.423 52.1055 212.875 52.1758 212.266 52.1758C211.381 52.1758 210.631 52.0176 210.016 51.7012C209.406 51.3848 208.943 50.9834 208.627 50.4971C208.316 50.0049 208.161 49.501 208.161 48.9854H210.561C210.572 49.3311 210.66 49.6094 210.824 49.8203C210.994 50.0312 211.208 50.1836 211.466 50.2773C211.729 50.3711 212.014 50.418 212.318 50.418C212.646 50.418 212.919 50.374 213.136 50.2861C213.353 50.1924 213.517 50.0693 213.628 49.917C213.745 49.7588 213.804 49.5771 213.804 49.3721Z" fill="white"/>
<path d="M47.4785 88.9268V90H42.208V88.9268H47.4785ZM42.4746 80.0469V90H41.1553V80.0469H42.4746ZM46.7812 84.3262V85.3994H42.208V84.3262H46.7812ZM47.4102 80.0469V81.127H42.208V80.0469H47.4102ZM50.9922 88.8584L53.0156 82.6035H54.3076L51.6484 90H50.8008L50.9922 88.8584ZM49.3037 82.6035L51.3887 88.8926L51.5322 90H50.6846L48.0049 82.6035H49.3037ZM58.498 90.1367C57.9831 90.1367 57.516 90.0501 57.0967 89.877C56.682 89.6992 56.3242 89.4508 56.0234 89.1318C55.7272 88.8128 55.4993 88.4346 55.3398 87.9971C55.1803 87.5596 55.1006 87.0811 55.1006 86.5615V86.2744C55.1006 85.6729 55.1895 85.1374 55.3672 84.668C55.5449 84.194 55.7865 83.793 56.0918 83.4648C56.3971 83.1367 56.7435 82.8883 57.1309 82.7197C57.5182 82.5511 57.9193 82.4668 58.334 82.4668C58.8626 82.4668 59.3184 82.5579 59.7012 82.7402C60.0885 82.9225 60.4053 83.1777 60.6514 83.5059C60.8975 83.8294 61.0798 84.2122 61.1982 84.6543C61.3167 85.0918 61.376 85.5703 61.376 86.0898V86.6572H55.8525V85.625H60.1113V85.5293C60.0931 85.2012 60.0247 84.8822 59.9062 84.5723C59.7923 84.2624 59.61 84.0072 59.3594 83.8066C59.1087 83.6061 58.7669 83.5059 58.334 83.5059C58.0469 83.5059 57.7826 83.5674 57.541 83.6904C57.2995 83.8089 57.0921 83.9867 56.9189 84.2236C56.7458 84.4606 56.6113 84.75 56.5156 85.0918C56.4199 85.4336 56.3721 85.8278 56.3721 86.2744V86.5615C56.3721 86.9124 56.4199 87.2428 56.5156 87.5527C56.6159 87.8581 56.7594 88.127 56.9463 88.3594C57.1377 88.5918 57.3678 88.7741 57.6367 88.9062C57.9102 89.0384 58.2201 89.1045 58.5664 89.1045C59.013 89.1045 59.3913 89.0133 59.7012 88.8311C60.0111 88.6488 60.2822 88.4049 60.5146 88.0996L61.2803 88.708C61.1208 88.9495 60.918 89.1797 60.6719 89.3984C60.4258 89.6172 60.1227 89.7949 59.7627 89.9316C59.4072 90.0684 58.9857 90.1367 58.498 90.1367ZM64.1172 83.7656V90H62.8525V82.6035H64.083L64.1172 83.7656ZM66.4277 82.5625L66.4209 83.7383C66.3161 83.7155 66.2158 83.7018 66.1201 83.6973C66.029 83.6882 65.9242 83.6836 65.8057 83.6836C65.514 83.6836 65.2565 83.7292 65.0332 83.8203C64.8099 83.9115 64.6208 84.0391 64.4658 84.2031C64.3109 84.3672 64.1878 84.5632 64.0967 84.791C64.0101 85.0143 63.9531 85.2604 63.9258 85.5293L63.5703 85.7344C63.5703 85.2878 63.6136 84.8685 63.7002 84.4766C63.7913 84.0846 63.9303 83.7383 64.1172 83.4375C64.304 83.1322 64.541 82.8952 64.8281 82.7266C65.1198 82.5534 65.4661 82.4668 65.8672 82.4668C65.9583 82.4668 66.0632 82.4782 66.1816 82.501C66.3001 82.5192 66.3822 82.5397 66.4277 82.5625ZM69.7979 89.2344L71.8555 82.6035H73.209L70.2422 91.1416C70.1738 91.3239 70.0827 91.5199 69.9688 91.7295C69.8594 91.9437 69.7181 92.1465 69.5449 92.3379C69.3717 92.5293 69.1621 92.6842 68.916 92.8027C68.6745 92.9258 68.3851 92.9873 68.0479 92.9873C67.9476 92.9873 67.82 92.9736 67.665 92.9463C67.5101 92.9189 67.4007 92.8962 67.3369 92.8779L67.3301 91.8525C67.3665 91.8571 67.4235 91.8617 67.501 91.8662C67.583 91.8753 67.64 91.8799 67.6719 91.8799C67.959 91.8799 68.2028 91.8411 68.4033 91.7637C68.6038 91.6908 68.7725 91.5654 68.9092 91.3877C69.0505 91.2145 69.1712 90.9753 69.2715 90.6699L69.7979 89.2344ZM68.2871 82.6035L70.208 88.3457L70.5361 89.6787L69.627 90.1436L66.9062 82.6035H68.2871ZM79.0811 84.0732V90H77.8096V82.6035H79.0127L79.0811 84.0732ZM78.8213 86.0215L78.2334 86.001C78.238 85.4951 78.304 85.028 78.4316 84.5996C78.5592 84.1667 78.7484 83.7907 78.999 83.4717C79.2497 83.1527 79.5618 82.9066 79.9355 82.7334C80.3092 82.5557 80.7422 82.4668 81.2344 82.4668C81.5807 82.4668 81.8997 82.5169 82.1914 82.6172C82.4831 82.7129 82.736 82.8656 82.9502 83.0752C83.1644 83.2848 83.3307 83.5537 83.4492 83.8818C83.5677 84.21 83.627 84.6064 83.627 85.0713V90H82.3623V85.1328C82.3623 84.7454 82.2962 84.4355 82.1641 84.2031C82.0365 83.9707 81.8542 83.8021 81.6172 83.6973C81.3802 83.5879 81.1022 83.5332 80.7832 83.5332C80.4095 83.5332 80.0973 83.5993 79.8467 83.7314C79.596 83.8636 79.3955 84.0459 79.2451 84.2783C79.0947 84.5107 78.9854 84.7773 78.917 85.0781C78.8532 85.3743 78.8213 85.6888 78.8213 86.0215ZM83.6133 85.3242L82.7656 85.584C82.7702 85.1784 82.8363 84.7887 82.9639 84.415C83.096 84.0413 83.2852 83.7087 83.5312 83.417C83.7819 83.1253 84.0895 82.8952 84.4541 82.7266C84.8187 82.5534 85.2357 82.4668 85.7051 82.4668C86.1016 82.4668 86.4525 82.5192 86.7578 82.624C87.0677 82.7288 87.3275 82.8906 87.5371 83.1094C87.7513 83.3236 87.9131 83.5993 88.0225 83.9365C88.1318 84.2738 88.1865 84.6748 88.1865 85.1396V90H86.915V85.126C86.915 84.7113 86.849 84.39 86.7168 84.1621C86.5892 83.9297 86.4069 83.7679 86.1699 83.6768C85.9375 83.5811 85.6595 83.5332 85.3359 83.5332C85.0579 83.5332 84.8118 83.5811 84.5977 83.6768C84.3835 83.7725 84.2035 83.9046 84.0576 84.0732C83.9118 84.2373 83.8001 84.4264 83.7227 84.6406C83.6497 84.8548 83.6133 85.0827 83.6133 85.3242ZM89.7656 86.3838V86.2266C89.7656 85.6934 89.8431 85.1989 89.998 84.7432C90.153 84.2829 90.3763 83.8841 90.668 83.5469C90.9596 83.2051 91.3128 82.9408 91.7275 82.7539C92.1423 82.5625 92.6071 82.4668 93.1221 82.4668C93.6416 82.4668 94.1087 82.5625 94.5234 82.7539C94.9427 82.9408 95.2982 83.2051 95.5898 83.5469C95.8861 83.8841 96.1117 84.2829 96.2666 84.7432C96.4215 85.1989 96.499 85.6934 96.499 86.2266V86.3838C96.499 86.917 96.4215 87.4115 96.2666 87.8672C96.1117 88.3229 95.8861 88.7217 95.5898 89.0635C95.2982 89.4007 94.945 89.665 94.5303 89.8564C94.1201 90.0433 93.6553 90.1367 93.1357 90.1367C92.6162 90.1367 92.1491 90.0433 91.7344 89.8564C91.3197 89.665 90.9642 89.4007 90.668 89.0635C90.3763 88.7217 90.153 88.3229 89.998 87.8672C89.8431 87.4115 89.7656 86.917 89.7656 86.3838ZM91.0303 86.2266V86.3838C91.0303 86.7529 91.0736 87.1016 91.1602 87.4297C91.2467 87.7533 91.3766 88.0404 91.5498 88.291C91.7275 88.5417 91.9486 88.7399 92.2129 88.8857C92.4772 89.027 92.7848 89.0977 93.1357 89.0977C93.4821 89.0977 93.7852 89.027 94.0449 88.8857C94.3092 88.7399 94.528 88.5417 94.7012 88.291C94.8743 88.0404 95.0042 87.7533 95.0908 87.4297C95.182 87.1016 95.2275 86.7529 95.2275 86.3838V86.2266C95.2275 85.862 95.182 85.5179 95.0908 85.1943C95.0042 84.8662 94.8721 84.5768 94.6943 84.3262C94.5212 84.071 94.3024 83.8704 94.0381 83.7246C93.7783 83.5788 93.473 83.5059 93.1221 83.5059C92.7757 83.5059 92.4704 83.5788 92.2061 83.7246C91.9463 83.8704 91.7275 84.071 91.5498 84.3262C91.3766 84.5768 91.2467 84.8662 91.1602 85.1943C91.0736 85.5179 91.0303 85.862 91.0303 86.2266ZM99.3496 84.1826V90H98.085V82.6035H99.2812L99.3496 84.1826ZM99.0488 86.0215L98.5225 86.001C98.527 85.4951 98.6022 85.028 98.748 84.5996C98.8939 84.1667 99.099 83.7907 99.3633 83.4717C99.6276 83.1527 99.9421 82.9066 100.307 82.7334C100.676 82.5557 101.084 82.4668 101.53 82.4668C101.895 82.4668 102.223 82.5169 102.515 82.6172C102.806 82.7129 103.055 82.8678 103.26 83.082C103.469 83.2962 103.629 83.5742 103.738 83.916C103.848 84.2533 103.902 84.6657 103.902 85.1533V90H102.631V85.1396C102.631 84.7523 102.574 84.4424 102.46 84.21C102.346 83.973 102.18 83.8021 101.961 83.6973C101.742 83.5879 101.473 83.5332 101.154 83.5332C100.84 83.5332 100.553 83.5993 100.293 83.7314C100.038 83.8636 99.8167 84.0459 99.6299 84.2783C99.4476 84.5107 99.304 84.7773 99.1992 85.0781C99.099 85.3743 99.0488 85.6888 99.0488 86.0215ZM108.92 82.6035V83.5742H104.921V82.6035H108.92ZM106.274 80.8057H107.539V88.168C107.539 88.4186 107.578 88.6077 107.655 88.7354C107.733 88.863 107.833 88.9473 107.956 88.9883C108.079 89.0293 108.211 89.0498 108.353 89.0498C108.457 89.0498 108.567 89.0407 108.681 89.0225C108.799 88.9997 108.888 88.9814 108.947 88.9678L108.954 90C108.854 90.0319 108.722 90.0615 108.558 90.0889C108.398 90.1208 108.204 90.1367 107.977 90.1367C107.667 90.1367 107.382 90.0752 107.122 89.9521C106.862 89.8291 106.655 89.624 106.5 89.3369C106.35 89.0452 106.274 88.6533 106.274 88.1611V80.8057ZM111.668 79.5V90H110.403V79.5H111.668ZM111.367 86.0215L110.841 86.001C110.845 85.4951 110.921 85.028 111.066 84.5996C111.212 84.1667 111.417 83.7907 111.682 83.4717C111.946 83.1527 112.26 82.9066 112.625 82.7334C112.994 82.5557 113.402 82.4668 113.849 82.4668C114.213 82.4668 114.541 82.5169 114.833 82.6172C115.125 82.7129 115.373 82.8678 115.578 83.082C115.788 83.2962 115.947 83.5742 116.057 83.916C116.166 84.2533 116.221 84.6657 116.221 85.1533V90H114.949V85.1396C114.949 84.7523 114.892 84.4424 114.778 84.21C114.664 83.973 114.498 83.8021 114.279 83.6973C114.061 83.5879 113.792 83.5332 113.473 83.5332C113.158 83.5332 112.871 83.5993 112.611 83.7314C112.356 83.8636 112.135 84.0459 111.948 84.2783C111.766 84.5107 111.622 84.7773 111.518 85.0781C111.417 85.3743 111.367 85.6888 111.367 86.0215ZM123.46 88.6875L125.36 82.6035H126.194L126.03 83.8135L124.096 90H123.282L123.46 88.6875ZM122.182 82.6035L123.802 88.7559L123.918 90H123.063L120.917 82.6035H122.182ZM128.013 88.708L129.558 82.6035H130.815L128.669 90H127.821L128.013 88.708ZM126.379 82.6035L128.238 88.585L128.45 90H127.644L125.654 83.7998L125.49 82.6035H126.379ZM135.184 90.1367C134.669 90.1367 134.201 90.0501 133.782 89.877C133.368 89.6992 133.01 89.4508 132.709 89.1318C132.413 88.8128 132.185 88.4346 132.025 87.9971C131.866 87.5596 131.786 87.0811 131.786 86.5615V86.2744C131.786 85.6729 131.875 85.1374 132.053 84.668C132.23 84.194 132.472 83.793 132.777 83.4648C133.083 83.1367 133.429 82.8883 133.816 82.7197C134.204 82.5511 134.605 82.4668 135.02 82.4668C135.548 82.4668 136.004 82.5579 136.387 82.7402C136.774 82.9225 137.091 83.1777 137.337 83.5059C137.583 83.8294 137.765 84.2122 137.884 84.6543C138.002 85.0918 138.062 85.5703 138.062 86.0898V86.6572H132.538V85.625H136.797V85.5293C136.779 85.2012 136.71 84.8822 136.592 84.5723C136.478 84.2624 136.296 84.0072 136.045 83.8066C135.794 83.6061 135.452 83.5059 135.02 83.5059C134.732 83.5059 134.468 83.5674 134.227 83.6904C133.985 83.8089 133.778 83.9867 133.604 84.2236C133.431 84.4606 133.297 84.75 133.201 85.0918C133.105 85.4336 133.058 85.8278 133.058 86.2744V86.5615C133.058 86.9124 133.105 87.2428 133.201 87.5527C133.301 87.8581 133.445 88.127 133.632 88.3594C133.823 88.5918 134.053 88.7741 134.322 88.9062C134.596 89.0384 134.906 89.1045 135.252 89.1045C135.699 89.1045 136.077 89.0133 136.387 88.8311C136.697 88.6488 136.968 88.4049 137.2 88.0996L137.966 88.708C137.806 88.9495 137.604 89.1797 137.357 89.3984C137.111 89.6172 136.808 89.7949 136.448 89.9316C136.093 90.0684 135.671 90.1367 135.184 90.1367ZM144.275 84.0254V92.8438H143.004V82.6035H144.166L144.275 84.0254ZM149.259 86.2402V86.3838C149.259 86.9215 149.195 87.4206 149.067 87.8809C148.94 88.3366 148.753 88.7331 148.507 89.0703C148.265 89.4076 147.967 89.6696 147.611 89.8564C147.256 90.0433 146.848 90.1367 146.388 90.1367C145.918 90.1367 145.504 90.0592 145.144 89.9043C144.784 89.7493 144.478 89.5238 144.228 89.2275C143.977 88.9313 143.776 88.5758 143.626 88.1611C143.48 87.7464 143.38 87.2793 143.325 86.7598V85.9941C143.38 85.4473 143.482 84.9574 143.633 84.5244C143.783 84.0915 143.981 83.7223 144.228 83.417C144.478 83.1071 144.781 82.8724 145.137 82.7129C145.492 82.5488 145.902 82.4668 146.367 82.4668C146.832 82.4668 147.244 82.5579 147.604 82.7402C147.965 82.918 148.268 83.1732 148.514 83.5059C148.76 83.8385 148.944 84.2373 149.067 84.7021C149.195 85.1624 149.259 85.6751 149.259 86.2402ZM147.987 86.3838V86.2402C147.987 85.8711 147.949 85.5247 147.871 85.2012C147.794 84.873 147.673 84.5859 147.509 84.3398C147.349 84.0892 147.144 83.8932 146.894 83.752C146.643 83.6061 146.344 83.5332 145.998 83.5332C145.679 83.5332 145.401 83.5879 145.164 83.6973C144.932 83.8066 144.733 83.9548 144.569 84.1416C144.405 84.3239 144.271 84.5335 144.166 84.7705C144.066 85.0029 143.991 85.2445 143.94 85.4951V87.2656C144.032 87.5846 144.159 87.8854 144.323 88.168C144.487 88.446 144.706 88.6715 144.979 88.8447C145.253 89.0133 145.597 89.0977 146.012 89.0977C146.354 89.0977 146.647 89.027 146.894 88.8857C147.144 88.7399 147.349 88.5417 147.509 88.291C147.673 88.0404 147.794 87.7533 147.871 87.4297C147.949 87.1016 147.987 86.7529 147.987 86.3838ZM152.246 79.5V90H150.975V79.5H152.246ZM158.638 88.7354V84.9277C158.638 84.6361 158.578 84.3831 158.46 84.1689C158.346 83.9502 158.173 83.7816 157.94 83.6631C157.708 83.5446 157.421 83.4854 157.079 83.4854C156.76 83.4854 156.48 83.54 156.238 83.6494C156.001 83.7588 155.814 83.9023 155.678 84.0801C155.546 84.2578 155.479 84.4492 155.479 84.6543H154.215C154.215 84.39 154.283 84.1279 154.42 83.8682C154.557 83.6084 154.753 83.3737 155.008 83.1641C155.268 82.9499 155.577 82.7812 155.938 82.6582C156.302 82.5306 156.708 82.4668 157.154 82.4668C157.692 82.4668 158.166 82.5579 158.576 82.7402C158.991 82.9225 159.314 83.1982 159.547 83.5674C159.784 83.932 159.902 84.39 159.902 84.9414V88.3867C159.902 88.6328 159.923 88.8949 159.964 89.1729C160.009 89.4508 160.076 89.6901 160.162 89.8906V90H158.843C158.779 89.8542 158.729 89.6605 158.692 89.4189C158.656 89.1729 158.638 88.945 158.638 88.7354ZM158.856 85.5156L158.87 86.4043H157.592C157.232 86.4043 156.91 86.4339 156.628 86.4932C156.345 86.5479 156.108 86.6322 155.917 86.7461C155.726 86.86 155.58 87.0036 155.479 87.1768C155.379 87.3454 155.329 87.5436 155.329 87.7715C155.329 88.0039 155.382 88.2158 155.486 88.4072C155.591 88.5986 155.748 88.7513 155.958 88.8652C156.172 88.9746 156.434 89.0293 156.744 89.0293C157.132 89.0293 157.473 88.9473 157.77 88.7832C158.066 88.6191 158.3 88.4186 158.474 88.1816C158.651 87.9447 158.747 87.7145 158.761 87.4912L159.301 88.0996C159.269 88.291 159.182 88.5029 159.041 88.7354C158.9 88.9678 158.711 89.1911 158.474 89.4053C158.241 89.6149 157.963 89.7904 157.64 89.9316C157.321 90.0684 156.961 90.1367 156.56 90.1367C156.058 90.1367 155.618 90.0387 155.24 89.8428C154.867 89.6468 154.575 89.3848 154.365 89.0566C154.16 88.724 154.058 88.3525 154.058 87.9424C154.058 87.5459 154.135 87.1973 154.29 86.8965C154.445 86.5911 154.668 86.3382 154.96 86.1377C155.252 85.9326 155.603 85.7777 156.013 85.6729C156.423 85.568 156.881 85.5156 157.387 85.5156H158.856ZM163.86 89.2344L165.918 82.6035H167.271L164.305 91.1416C164.236 91.3239 164.145 91.5199 164.031 91.7295C163.922 91.9437 163.781 92.1465 163.607 92.3379C163.434 92.5293 163.225 92.6842 162.979 92.8027C162.737 92.9258 162.448 92.9873 162.11 92.9873C162.01 92.9873 161.882 92.9736 161.728 92.9463C161.573 92.9189 161.463 92.8962 161.399 92.8779L161.393 91.8525C161.429 91.8571 161.486 91.8617 161.563 91.8662C161.646 91.8753 161.702 91.8799 161.734 91.8799C162.021 91.8799 162.265 91.8411 162.466 91.7637C162.666 91.6908 162.835 91.5654 162.972 91.3877C163.113 91.2145 163.234 90.9753 163.334 90.6699L163.86 89.2344ZM162.35 82.6035L164.271 88.3457L164.599 89.6787L163.689 90.1436L160.969 82.6035H162.35ZM44.6074 98.4336V100.519H43.582V98.4336H44.6074ZM44.4844 109.597V111.422H43.4658V109.597H44.4844ZM45.8516 107.437C45.8516 107.163 45.79 106.917 45.667 106.698C45.5439 106.479 45.3411 106.279 45.0586 106.097C44.776 105.914 44.3978 105.746 43.9238 105.591C43.3496 105.413 42.8529 105.197 42.4336 104.941C42.0189 104.686 41.6976 104.369 41.4697 103.991C41.2464 103.613 41.1348 103.155 41.1348 102.617C41.1348 102.057 41.2555 101.574 41.4971 101.168C41.7386 100.762 42.0804 100.45 42.5225 100.231C42.9645 100.013 43.484 99.9033 44.0811 99.9033C44.5459 99.9033 44.9606 99.974 45.3252 100.115C45.6898 100.252 45.9974 100.457 46.248 100.73C46.5033 101.004 46.6969 101.339 46.8291 101.735C46.9658 102.132 47.0342 102.59 47.0342 103.109H45.7764C45.7764 102.804 45.7399 102.524 45.667 102.269C45.5941 102.013 45.4847 101.792 45.3389 101.605C45.193 101.414 45.0153 101.268 44.8057 101.168C44.596 101.063 44.3545 101.011 44.0811 101.011C43.6982 101.011 43.3815 101.077 43.1309 101.209C42.8848 101.341 42.7025 101.528 42.584 101.77C42.4655 102.007 42.4062 102.282 42.4062 102.597C42.4062 102.888 42.4655 103.144 42.584 103.362C42.7025 103.581 42.903 103.779 43.1855 103.957C43.4727 104.13 43.8669 104.301 44.3682 104.47C44.9561 104.657 45.4551 104.878 45.8652 105.133C46.2754 105.383 46.5876 105.693 46.8018 106.062C47.016 106.427 47.123 106.881 47.123 107.423C47.123 108.011 46.9909 108.507 46.7266 108.913C46.4622 109.314 46.0908 109.619 45.6123 109.829C45.1338 110.039 44.5732 110.144 43.9307 110.144C43.5433 110.144 43.1605 110.091 42.7822 109.986C42.404 109.882 42.0622 109.711 41.7568 109.474C41.4515 109.232 41.2077 108.915 41.0254 108.523C40.8431 108.127 40.752 107.642 40.752 107.067H42.0234C42.0234 107.455 42.0781 107.776 42.1875 108.031C42.3014 108.282 42.4518 108.482 42.6387 108.633C42.8255 108.779 43.0306 108.883 43.2539 108.947C43.4818 109.007 43.7074 109.036 43.9307 109.036C44.3408 109.036 44.6872 108.972 44.9697 108.845C45.2568 108.713 45.4756 108.526 45.626 108.284C45.7764 108.043 45.8516 107.76 45.8516 107.437ZM52.8584 99.9922V110H51.5938V101.571L49.0439 102.501V101.359L52.6602 99.9922H52.8584ZM62.8252 104.23V105.748C62.8252 106.564 62.7523 107.252 62.6064 107.812C62.4606 108.373 62.251 108.824 61.9775 109.166C61.7041 109.508 61.3737 109.756 60.9863 109.911C60.6035 110.062 60.1706 110.137 59.6875 110.137C59.3047 110.137 58.9515 110.089 58.6279 109.993C58.3044 109.897 58.0127 109.745 57.7529 109.535C57.4977 109.321 57.279 109.043 57.0967 108.701C56.9144 108.359 56.7754 107.945 56.6797 107.457C56.584 106.969 56.5361 106.4 56.5361 105.748V104.23C56.5361 103.415 56.609 102.731 56.7549 102.18C56.9053 101.628 57.1172 101.186 57.3906 100.854C57.6641 100.516 57.9922 100.275 58.375 100.129C58.7624 99.9831 59.1953 99.9102 59.6738 99.9102C60.0612 99.9102 60.4167 99.958 60.7402 100.054C61.0684 100.145 61.36 100.293 61.6152 100.498C61.8704 100.699 62.0869 100.967 62.2646 101.305C62.4469 101.637 62.5859 102.045 62.6816 102.528C62.7773 103.011 62.8252 103.579 62.8252 104.23ZM61.5537 105.953V104.019C61.5537 103.572 61.5264 103.18 61.4717 102.843C61.4215 102.501 61.3464 102.209 61.2461 101.968C61.1458 101.726 61.0182 101.53 60.8633 101.38C60.7129 101.229 60.5374 101.12 60.3369 101.052C60.141 100.979 59.9199 100.942 59.6738 100.942C59.373 100.942 59.1064 100.999 58.874 101.113C58.6416 101.223 58.4456 101.398 58.2861 101.64C58.1312 101.881 58.0127 102.198 57.9307 102.59C57.8486 102.982 57.8076 103.458 57.8076 104.019V105.953C57.8076 106.4 57.8327 106.794 57.8828 107.136C57.9375 107.478 58.0173 107.774 58.1221 108.024C58.2269 108.271 58.3545 108.473 58.5049 108.633C58.6553 108.792 58.8285 108.911 59.0244 108.988C59.2249 109.061 59.446 109.098 59.6875 109.098C59.9974 109.098 60.2686 109.038 60.501 108.92C60.7334 108.801 60.9271 108.617 61.082 108.366C61.2415 108.111 61.36 107.785 61.4375 107.389C61.515 106.988 61.5537 106.509 61.5537 105.953ZM70.7002 104.23V105.748C70.7002 106.564 70.6273 107.252 70.4814 107.812C70.3356 108.373 70.126 108.824 69.8525 109.166C69.5791 109.508 69.2487 109.756 68.8613 109.911C68.4785 110.062 68.0456 110.137 67.5625 110.137C67.1797 110.137 66.8265 110.089 66.5029 109.993C66.1794 109.897 65.8877 109.745 65.6279 109.535C65.3727 109.321 65.154 109.043 64.9717 108.701C64.7894 108.359 64.6504 107.945 64.5547 107.457C64.459 106.969 64.4111 106.4 64.4111 105.748V104.23C64.4111 103.415 64.484 102.731 64.6299 102.18C64.7803 101.628 64.9922 101.186 65.2656 100.854C65.5391 100.516 65.8672 100.275 66.25 100.129C66.6374 99.9831 67.0703 99.9102 67.5488 99.9102C67.9362 99.9102 68.2917 99.958 68.6152 100.054C68.9434 100.145 69.235 100.293 69.4902 100.498C69.7454 100.699 69.9619 100.967 70.1396 101.305C70.3219 101.637 70.4609 102.045 70.5566 102.528C70.6523 103.011 70.7002 103.579 70.7002 104.23ZM69.4287 105.953V104.019C69.4287 103.572 69.4014 103.18 69.3467 102.843C69.2965 102.501 69.2214 102.209 69.1211 101.968C69.0208 101.726 68.8932 101.53 68.7383 101.38C68.5879 101.229 68.4124 101.12 68.2119 101.052C68.016 100.979 67.7949 100.942 67.5488 100.942C67.248 100.942 66.9814 100.999 66.749 101.113C66.5166 101.223 66.3206 101.398 66.1611 101.64C66.0062 101.881 65.8877 102.198 65.8057 102.59C65.7236 102.982 65.6826 103.458 65.6826 104.019V105.953C65.6826 106.4 65.7077 106.794 65.7578 107.136C65.8125 107.478 65.8923 107.774 65.9971 108.024C66.1019 108.271 66.2295 108.473 66.3799 108.633C66.5303 108.792 66.7035 108.911 66.8994 108.988C67.0999 109.061 67.321 109.098 67.5625 109.098C67.8724 109.098 68.1436 109.038 68.376 108.92C68.6084 108.801 68.8021 108.617 68.957 108.366C69.1165 108.111 69.235 107.785 69.3125 107.389C69.39 106.988 69.4287 106.509 69.4287 105.953ZM78.5752 104.23V105.748C78.5752 106.564 78.5023 107.252 78.3564 107.812C78.2106 108.373 78.001 108.824 77.7275 109.166C77.4541 109.508 77.1237 109.756 76.7363 109.911C76.3535 110.062 75.9206 110.137 75.4375 110.137C75.0547 110.137 74.7015 110.089 74.3779 109.993C74.0544 109.897 73.7627 109.745 73.5029 109.535C73.2477 109.321 73.029 109.043 72.8467 108.701C72.6644 108.359 72.5254 107.945 72.4297 107.457C72.334 106.969 72.2861 106.4 72.2861 105.748V104.23C72.2861 103.415 72.359 102.731 72.5049 102.18C72.6553 101.628 72.8672 101.186 73.1406 100.854C73.4141 100.516 73.7422 100.275 74.125 100.129C74.5124 99.9831 74.9453 99.9102 75.4238 99.9102C75.8112 99.9102 76.1667 99.958 76.4902 100.054C76.8184 100.145 77.11 100.293 77.3652 100.498C77.6204 100.699 77.8369 100.967 78.0146 101.305C78.1969 101.637 78.3359 102.045 78.4316 102.528C78.5273 103.011 78.5752 103.579 78.5752 104.23ZM77.3037 105.953V104.019C77.3037 103.572 77.2764 103.18 77.2217 102.843C77.1715 102.501 77.0964 102.209 76.9961 101.968C76.8958 101.726 76.7682 101.53 76.6133 101.38C76.4629 101.229 76.2874 101.12 76.0869 101.052C75.891 100.979 75.6699 100.942 75.4238 100.942C75.123 100.942 74.8564 100.999 74.624 101.113C74.3916 101.223 74.1956 101.398 74.0361 101.64C73.8812 101.881 73.7627 102.198 73.6807 102.59C73.5986 102.982 73.5576 103.458 73.5576 104.019V105.953C73.5576 106.4 73.5827 106.794 73.6328 107.136C73.6875 107.478 73.7673 107.774 73.8721 108.024C73.9769 108.271 74.1045 108.473 74.2549 108.633C74.4053 108.792 74.5785 108.911 74.7744 108.988C74.9749 109.061 75.196 109.098 75.4375 109.098C75.7474 109.098 76.0186 109.038 76.251 108.92C76.4834 108.801 76.6771 108.617 76.832 108.366C76.9915 108.111 77.11 107.785 77.1875 107.389C77.265 106.988 77.3037 106.509 77.3037 105.953ZM85.6982 110H84.4336V101.824C84.4336 101.291 84.5293 100.842 84.7207 100.478C84.9167 100.108 85.1969 99.8304 85.5615 99.6436C85.9261 99.4521 86.359 99.3564 86.8604 99.3564C87.0062 99.3564 87.152 99.3656 87.2979 99.3838C87.4482 99.402 87.5941 99.4294 87.7354 99.4658L87.667 100.498C87.5713 100.475 87.4619 100.459 87.3389 100.45C87.2204 100.441 87.1019 100.437 86.9834 100.437C86.7145 100.437 86.4821 100.491 86.2861 100.601C86.0947 100.705 85.9489 100.86 85.8486 101.065C85.7484 101.271 85.6982 101.523 85.6982 101.824V110ZM87.2705 102.604V103.574H83.2646V102.604H87.2705ZM88.3438 106.384V106.227C88.3438 105.693 88.4212 105.199 88.5762 104.743C88.7311 104.283 88.9544 103.884 89.2461 103.547C89.5378 103.205 89.891 102.941 90.3057 102.754C90.7204 102.562 91.1852 102.467 91.7002 102.467C92.2197 102.467 92.6868 102.562 93.1016 102.754C93.5208 102.941 93.8763 103.205 94.168 103.547C94.4642 103.884 94.6898 104.283 94.8447 104.743C94.9997 105.199 95.0771 105.693 95.0771 106.227V106.384C95.0771 106.917 94.9997 107.411 94.8447 107.867C94.6898 108.323 94.4642 108.722 94.168 109.063C93.8763 109.401 93.5231 109.665 93.1084 109.856C92.6982 110.043 92.2334 110.137 91.7139 110.137C91.1943 110.137 90.7272 110.043 90.3125 109.856C89.8978 109.665 89.5423 109.401 89.2461 109.063C88.9544 108.722 88.7311 108.323 88.5762 107.867C88.4212 107.411 88.3438 106.917 88.3438 106.384ZM89.6084 106.227V106.384C89.6084 106.753 89.6517 107.102 89.7383 107.43C89.8249 107.753 89.9548 108.04 90.1279 108.291C90.3057 108.542 90.5267 108.74 90.791 108.886C91.0553 109.027 91.363 109.098 91.7139 109.098C92.0602 109.098 92.3633 109.027 92.623 108.886C92.8874 108.74 93.1061 108.542 93.2793 108.291C93.4525 108.04 93.5824 107.753 93.6689 107.43C93.7601 107.102 93.8057 106.753 93.8057 106.384V106.227C93.8057 105.862 93.7601 105.518 93.6689 105.194C93.5824 104.866 93.4502 104.577 93.2725 104.326C93.0993 104.071 92.8805 103.87 92.6162 103.725C92.3564 103.579 92.0511 103.506 91.7002 103.506C91.3538 103.506 91.0485 103.579 90.7842 103.725C90.5244 103.87 90.3057 104.071 90.1279 104.326C89.9548 104.577 89.8249 104.866 89.7383 105.194C89.6517 105.518 89.6084 105.862 89.6084 106.227ZM97.9277 103.766V110H96.6631V102.604H97.8936L97.9277 103.766ZM100.238 102.562L100.231 103.738C100.127 103.715 100.026 103.702 99.9307 103.697C99.8395 103.688 99.7347 103.684 99.6162 103.684C99.3245 103.684 99.0671 103.729 98.8438 103.82C98.6204 103.911 98.4313 104.039 98.2764 104.203C98.1214 104.367 97.9984 104.563 97.9072 104.791C97.8206 105.014 97.7637 105.26 97.7363 105.529L97.3809 105.734C97.3809 105.288 97.4242 104.868 97.5107 104.477C97.6019 104.085 97.7409 103.738 97.9277 103.438C98.1146 103.132 98.3516 102.895 98.6387 102.727C98.9303 102.553 99.2767 102.467 99.6777 102.467C99.7689 102.467 99.8737 102.478 99.9922 102.501C100.111 102.519 100.193 102.54 100.238 102.562ZM104.545 106.384V106.227C104.545 105.693 104.622 105.199 104.777 104.743C104.932 104.283 105.156 103.884 105.447 103.547C105.739 103.205 106.092 102.941 106.507 102.754C106.922 102.562 107.386 102.467 107.901 102.467C108.421 102.467 108.888 102.562 109.303 102.754C109.722 102.941 110.077 103.205 110.369 103.547C110.665 103.884 110.891 104.283 111.046 104.743C111.201 105.199 111.278 105.693 111.278 106.227V106.384C111.278 106.917 111.201 107.411 111.046 107.867C110.891 108.323 110.665 108.722 110.369 109.063C110.077 109.401 109.724 109.665 109.31 109.856C108.899 110.043 108.435 110.137 107.915 110.137C107.396 110.137 106.928 110.043 106.514 109.856C106.099 109.665 105.743 109.401 105.447 109.063C105.156 108.722 104.932 108.323 104.777 107.867C104.622 107.411 104.545 106.917 104.545 106.384ZM105.81 106.227V106.384C105.81 106.753 105.853 107.102 105.939 107.43C106.026 107.753 106.156 108.04 106.329 108.291C106.507 108.542 106.728 108.74 106.992 108.886C107.257 109.027 107.564 109.098 107.915 109.098C108.261 109.098 108.564 109.027 108.824 108.886C109.089 108.74 109.307 108.542 109.48 108.291C109.654 108.04 109.784 107.753 109.87 107.43C109.961 107.102 110.007 106.753 110.007 106.384V106.227C110.007 105.862 109.961 105.518 109.87 105.194C109.784 104.866 109.651 104.577 109.474 104.326C109.3 104.071 109.082 103.87 108.817 103.725C108.558 103.579 108.252 103.506 107.901 103.506C107.555 103.506 107.25 103.579 106.985 103.725C106.726 103.87 106.507 104.071 106.329 104.326C106.156 104.577 106.026 104.866 105.939 105.194C105.853 105.518 105.81 105.862 105.81 106.227ZM117.39 108.291V102.604H118.661V110H117.451L117.39 108.291ZM117.629 106.732L118.155 106.719C118.155 107.211 118.103 107.667 117.998 108.086C117.898 108.501 117.734 108.861 117.506 109.166C117.278 109.471 116.979 109.711 116.61 109.884C116.241 110.052 115.792 110.137 115.264 110.137C114.904 110.137 114.573 110.084 114.272 109.979C113.976 109.875 113.721 109.713 113.507 109.494C113.293 109.275 113.126 108.991 113.008 108.64C112.894 108.289 112.837 107.867 112.837 107.375V102.604H114.102V107.389C114.102 107.721 114.138 107.997 114.211 108.216C114.288 108.43 114.391 108.601 114.519 108.729C114.651 108.852 114.797 108.938 114.956 108.988C115.12 109.038 115.289 109.063 115.462 109.063C116 109.063 116.426 108.961 116.74 108.756C117.055 108.546 117.28 108.266 117.417 107.915C117.558 107.56 117.629 107.165 117.629 106.732ZM121.854 103.766V110H120.589V102.604H121.819L121.854 103.766ZM124.164 102.562L124.157 103.738C124.052 103.715 123.952 103.702 123.856 103.697C123.765 103.688 123.66 103.684 123.542 103.684C123.25 103.684 122.993 103.729 122.77 103.82C122.546 103.911 122.357 104.039 122.202 104.203C122.047 104.367 121.924 104.563 121.833 104.791C121.746 105.014 121.689 105.26 121.662 105.529L121.307 105.734C121.307 105.288 121.35 104.868 121.437 104.477C121.528 104.085 121.667 103.738 121.854 103.438C122.04 103.132 122.277 102.895 122.564 102.727C122.856 102.553 123.202 102.467 123.604 102.467C123.695 102.467 123.799 102.478 123.918 102.501C124.036 102.519 124.118 102.54 124.164 102.562ZM131.766 109.098C132.066 109.098 132.344 109.036 132.6 108.913C132.855 108.79 133.064 108.621 133.229 108.407C133.393 108.188 133.486 107.94 133.509 107.662H134.712C134.689 108.1 134.541 108.507 134.268 108.886C133.999 109.259 133.646 109.562 133.208 109.795C132.771 110.023 132.29 110.137 131.766 110.137C131.21 110.137 130.724 110.039 130.31 109.843C129.899 109.647 129.558 109.378 129.284 109.036C129.015 108.694 128.812 108.302 128.676 107.86C128.544 107.414 128.478 106.942 128.478 106.445V106.158C128.478 105.661 128.544 105.192 128.676 104.75C128.812 104.303 129.015 103.909 129.284 103.567C129.558 103.226 129.899 102.957 130.31 102.761C130.724 102.565 131.21 102.467 131.766 102.467C132.344 102.467 132.85 102.585 133.283 102.822C133.716 103.055 134.056 103.374 134.302 103.779C134.552 104.18 134.689 104.636 134.712 105.146H133.509C133.486 104.841 133.399 104.565 133.249 104.319C133.103 104.073 132.903 103.877 132.647 103.731C132.397 103.581 132.103 103.506 131.766 103.506C131.378 103.506 131.052 103.583 130.788 103.738C130.528 103.889 130.321 104.094 130.166 104.354C130.016 104.609 129.906 104.894 129.838 105.208C129.774 105.518 129.742 105.835 129.742 106.158V106.445C129.742 106.769 129.774 107.088 129.838 107.402C129.902 107.717 130.009 108.002 130.159 108.257C130.314 108.512 130.521 108.717 130.781 108.872C131.046 109.022 131.374 109.098 131.766 109.098ZM137.508 99.5V110H136.236V99.5H137.508ZM140.912 102.604V110H139.641V102.604H140.912ZM139.545 100.642C139.545 100.437 139.606 100.263 139.729 100.122C139.857 99.9808 140.044 99.9102 140.29 99.9102C140.532 99.9102 140.716 99.9808 140.844 100.122C140.976 100.263 141.042 100.437 141.042 100.642C141.042 100.838 140.976 101.006 140.844 101.147C140.716 101.284 140.532 101.353 140.29 101.353C140.044 101.353 139.857 101.284 139.729 101.147C139.606 101.006 139.545 100.838 139.545 100.642ZM146.012 110.137C145.497 110.137 145.03 110.05 144.61 109.877C144.196 109.699 143.838 109.451 143.537 109.132C143.241 108.813 143.013 108.435 142.854 107.997C142.694 107.56 142.614 107.081 142.614 106.562V106.274C142.614 105.673 142.703 105.137 142.881 104.668C143.059 104.194 143.3 103.793 143.605 103.465C143.911 103.137 144.257 102.888 144.645 102.72C145.032 102.551 145.433 102.467 145.848 102.467C146.376 102.467 146.832 102.558 147.215 102.74C147.602 102.923 147.919 103.178 148.165 103.506C148.411 103.829 148.593 104.212 148.712 104.654C148.83 105.092 148.89 105.57 148.89 106.09V106.657H143.366V105.625H147.625V105.529C147.607 105.201 147.538 104.882 147.42 104.572C147.306 104.262 147.124 104.007 146.873 103.807C146.622 103.606 146.281 103.506 145.848 103.506C145.561 103.506 145.296 103.567 145.055 103.69C144.813 103.809 144.606 103.987 144.433 104.224C144.259 104.461 144.125 104.75 144.029 105.092C143.934 105.434 143.886 105.828 143.886 106.274V106.562C143.886 106.912 143.934 107.243 144.029 107.553C144.13 107.858 144.273 108.127 144.46 108.359C144.651 108.592 144.882 108.774 145.15 108.906C145.424 109.038 145.734 109.104 146.08 109.104C146.527 109.104 146.905 109.013 147.215 108.831C147.525 108.649 147.796 108.405 148.028 108.1L148.794 108.708C148.634 108.95 148.432 109.18 148.186 109.398C147.939 109.617 147.636 109.795 147.276 109.932C146.921 110.068 146.499 110.137 146.012 110.137ZM151.631 104.183V110H150.366V102.604H151.562L151.631 104.183ZM151.33 106.021L150.804 106.001C150.808 105.495 150.883 105.028 151.029 104.6C151.175 104.167 151.38 103.791 151.645 103.472C151.909 103.153 152.223 102.907 152.588 102.733C152.957 102.556 153.365 102.467 153.812 102.467C154.176 102.467 154.504 102.517 154.796 102.617C155.088 102.713 155.336 102.868 155.541 103.082C155.751 103.296 155.91 103.574 156.02 103.916C156.129 104.253 156.184 104.666 156.184 105.153V110H154.912V105.14C154.912 104.752 154.855 104.442 154.741 104.21C154.627 103.973 154.461 103.802 154.242 103.697C154.023 103.588 153.755 103.533 153.436 103.533C153.121 103.533 152.834 103.599 152.574 103.731C152.319 103.864 152.098 104.046 151.911 104.278C151.729 104.511 151.585 104.777 151.48 105.078C151.38 105.374 151.33 105.689 151.33 106.021ZM161.201 102.604V103.574H157.202V102.604H161.201ZM158.556 100.806H159.82V108.168C159.82 108.419 159.859 108.608 159.937 108.735C160.014 108.863 160.114 108.947 160.237 108.988C160.36 109.029 160.493 109.05 160.634 109.05C160.739 109.05 160.848 109.041 160.962 109.022C161.08 109 161.169 108.981 161.229 108.968L161.235 110C161.135 110.032 161.003 110.062 160.839 110.089C160.679 110.121 160.486 110.137 160.258 110.137C159.948 110.137 159.663 110.075 159.403 109.952C159.144 109.829 158.936 109.624 158.781 109.337C158.631 109.045 158.556 108.653 158.556 108.161V100.806ZM166.991 108.038C166.991 107.856 166.95 107.687 166.868 107.532C166.791 107.373 166.629 107.229 166.383 107.102C166.141 106.969 165.777 106.855 165.289 106.76C164.879 106.673 164.507 106.571 164.175 106.452C163.847 106.334 163.566 106.19 163.334 106.021C163.106 105.853 162.931 105.655 162.808 105.427C162.685 105.199 162.623 104.932 162.623 104.627C162.623 104.335 162.687 104.06 162.814 103.8C162.947 103.54 163.131 103.31 163.368 103.109C163.61 102.909 163.899 102.752 164.236 102.638C164.574 102.524 164.95 102.467 165.364 102.467C165.957 102.467 166.463 102.572 166.882 102.781C167.301 102.991 167.622 103.271 167.846 103.622C168.069 103.968 168.181 104.354 168.181 104.777H166.916C166.916 104.572 166.854 104.374 166.731 104.183C166.613 103.987 166.438 103.825 166.205 103.697C165.977 103.57 165.697 103.506 165.364 103.506C165.013 103.506 164.729 103.561 164.51 103.67C164.296 103.775 164.138 103.909 164.038 104.073C163.942 104.237 163.895 104.41 163.895 104.593C163.895 104.729 163.917 104.853 163.963 104.962C164.013 105.067 164.1 105.165 164.223 105.256C164.346 105.342 164.519 105.424 164.742 105.502C164.965 105.579 165.25 105.657 165.597 105.734C166.203 105.871 166.702 106.035 167.094 106.227C167.486 106.418 167.777 106.653 167.969 106.931C168.16 107.209 168.256 107.546 168.256 107.942C168.256 108.266 168.188 108.562 168.051 108.831C167.919 109.1 167.725 109.332 167.47 109.528C167.219 109.72 166.918 109.87 166.567 109.979C166.221 110.084 165.831 110.137 165.398 110.137C164.747 110.137 164.195 110.021 163.744 109.788C163.293 109.556 162.951 109.255 162.719 108.886C162.486 108.517 162.37 108.127 162.37 107.717H163.642C163.66 108.063 163.76 108.339 163.942 108.544C164.125 108.744 164.348 108.888 164.612 108.975C164.877 109.057 165.139 109.098 165.398 109.098C165.745 109.098 166.034 109.052 166.267 108.961C166.504 108.87 166.684 108.744 166.807 108.585C166.93 108.425 166.991 108.243 166.991 108.038Z" fill="white"/>
<defs>
<clipPath id="clip0_1_130">
<rect width="140" height="140" fill="white" transform="translate(355 36)"/>
</clipPath>
</defs>
</svg>
